<svg width="1440" height="657" viewBox="0 0 1440 657" fill="none" xmlns="http://www.w3.org/2000/svg">
<path d="M-271 328.812C-271 471.236 -64.9999 672.543 171 630.838C239.827 639.601 288.744 625.501 404 644.312C675 688.543 743 602.48 798.5 562.812C884.501 501.344 757.5 439.042 846 315.812C896.288 245.789 765 63.5417 731.5 46.3369C593.5 -48.9575 507 36.0421 404 13.312C193 -10.458 -271 154.566 -271 328.812Z" fill="#F1F8FA"/>
<path d="M1442 513.239H788V513.566H1442V513.239Z" fill="#EBEBEB"/>
<path d="M1376.47 534.285H1333.15V534.612H1376.47V534.285Z" fill="#EBEBEB"/>
<path d="M1221.24 537.843H1209.87V538.17H1221.24V537.843Z" fill="#EBEBEB"/>
<path d="M1331.84 522.146H1306.74V522.473H1331.84V522.146Z" fill="#EBEBEB"/>
<path d="M913.112 524.344H856.619V524.671H913.112V524.344Z" fill="#EBEBEB"/>
<path d="M933.043 524.344H924.764V524.671H933.043V524.344Z" fill="#EBEBEB"/>
<path d="M1082.5 529.864H959.963V530.191H1082.5V529.864Z" fill="#EBEBEB"/>
<path d="M1098 454.902H845.434C843.456 454.899 841.559 454.111 840.161 452.71C838.764 451.31 837.979 449.412 837.979 447.434V92.4033C837.996 90.4361 838.788 88.5551 840.184 87.1689C841.58 85.7828 843.467 85.0034 845.434 85H1098C1099.98 85 1101.88 85.7869 1103.28 87.1875C1104.68 88.5882 1105.46 90.4879 1105.46 92.4687V447.434C1105.46 449.415 1104.68 451.314 1103.28 452.715C1101.88 454.116 1099.98 454.902 1098 454.902ZM845.434 85.2616C843.542 85.2651 841.729 86.019 840.393 87.358C839.056 88.6969 838.306 90.5115 838.306 92.4033V447.434C838.306 449.326 839.056 451.14 840.393 452.479C841.729 453.818 843.542 454.572 845.434 454.575H1098C1099.89 454.572 1101.7 453.818 1103.04 452.48C1104.38 451.141 1105.13 449.327 1105.14 447.434V92.4033C1105.13 90.5103 1104.38 88.6957 1103.04 87.3572C1101.7 86.0186 1099.89 85.2651 1098 85.2616H845.434Z" fill="#EBEBEB"/>
<path d="M1380.93 454.902H1128.35C1126.37 454.899 1124.48 454.111 1123.08 452.711C1121.68 451.311 1120.89 449.413 1120.88 447.434V92.4033C1120.91 90.4349 1121.7 88.5539 1123.1 87.1681C1124.5 85.7823 1126.38 85.0033 1128.35 85H1380.93C1382.89 85.0068 1384.78 85.7877 1386.17 87.1735C1387.56 88.5593 1388.35 90.4383 1388.37 92.4033V447.434C1388.37 449.41 1387.59 451.306 1386.19 452.706C1384.8 454.106 1382.9 454.895 1380.93 454.902ZM1128.35 85.2616C1126.46 85.2651 1124.65 86.0186 1123.31 87.3572C1121.97 88.6957 1121.22 90.5103 1121.21 92.4033V447.434C1121.22 449.327 1121.97 451.141 1123.31 452.48C1124.65 453.818 1126.46 454.572 1128.35 454.575H1380.93C1382.82 454.572 1384.64 453.818 1385.97 452.48C1387.31 451.141 1388.07 449.327 1388.07 447.434V92.4033C1388.07 90.5103 1387.31 88.6957 1385.97 87.3572C1384.64 86.0186 1382.82 85.2651 1380.93 85.2616H1128.35Z" fill="#EBEBEB"/>
<path d="M1022.32 330.499L1325.37 330.499V128.975L1022.32 128.975V330.499Z" fill="#E6E6E6"/>
<path d="M1017.62 330.499L1320.67 330.499V128.975L1017.62 128.975V330.499Z" fill="#F5F5F5"/>
<path d="M1312.25 321.028V138.418L1026.03 138.418V321.028H1312.25Z" fill="white"/>
<path d="M1029.59 321.041V138.431H1026.04V321.041H1029.59Z" fill="#E6E6E6"/>
<path d="M1021.1 276.962L1317.19 276.962V264.261L1021.1 264.261V276.962Z" fill="#F5F5F5"/>
<g opacity="0.4">
<path d="M1036.82 119.02H1008.21V289.505H1036.82V119.02Z" fill="#E6E6E6"/>
<path d="M1036.83 275.811H1051.01V119.021H1036.83V275.811Z" fill="#F5F5F5"/>
<path d="M1079.62 119.02H1051.01V289.505H1079.62V119.02Z" fill="#E6E6E6"/>
<path d="M1079.63 275.811H1093.81V119.021H1079.63V275.811Z" fill="#F5F5F5"/>
<path d="M1122.42 119.02H1093.81V289.505H1122.42V119.02Z" fill="#E6E6E6"/>
<path d="M1122.43 275.811H1136.61V119.021H1122.43V275.811Z" fill="#F5F5F5"/>
<path d="M1165.21 119.02H1136.61V289.505H1165.21V119.02Z" fill="#E6E6E6"/>
<path d="M1165.23 275.811H1179.4V119.021H1165.23V275.811Z" fill="#F5F5F5"/>
<path d="M1208.01 119.02H1179.4V289.505H1208.01V119.02Z" fill="#E6E6E6"/>
<path d="M1208.01 275.811H1222.19V119.021H1208.01V275.811Z" fill="#F5F5F5"/>
<path d="M1250.8 119.02H1222.19V289.505H1250.8V119.02Z" fill="#E6E6E6"/>
<path d="M1250.81 275.811H1264.99V119.021H1250.81V275.811Z" fill="#F5F5F5"/>
<path d="M1293.59 119.02H1264.99V289.505H1293.59V119.02Z" fill="#E6E6E6"/>
<path d="M1293.61 275.811H1307.79V119.021H1293.61V275.811Z" fill="#F5F5F5"/>
<path d="M1336.39 119.02H1307.79V289.505H1336.39V119.02Z" fill="#E6E6E6"/>
</g>
<path d="M896.29 513.239H963.377V375.376H896.29V513.239Z" fill="#EBEBEB"/>
<path d="M909.029 513.239H896.289V485.156H922.397L909.029 513.239Z" fill="#F5F5F5"/>
<path d="M1279.06 513.239H1346.15V375.376H1279.06V513.239Z" fill="#EBEBEB"/>
<path d="M896.289 496.013L1290.18 496.013V375.376L896.289 375.376V496.013Z" fill="#F5F5F5"/>
<path d="M1277.09 461.978H1160.32C1160.04 461.978 1159.77 461.865 1159.56 461.664C1159.36 461.463 1159.25 461.19 1159.25 460.906V384.532C1159.25 384.247 1159.36 383.975 1159.56 383.773C1159.77 383.572 1160.04 383.459 1160.32 383.459H1181.88C1182.11 383.454 1182.34 383.528 1182.52 383.668C1185.72 386.011 1189.28 387.834 1193.05 389.071C1197.6 390.576 1202.36 391.336 1207.15 391.32H1230.25C1239.08 391.476 1247.74 388.809 1254.96 383.708C1255.14 383.569 1255.36 383.495 1255.58 383.498H1277.15C1277.44 383.498 1277.71 383.611 1277.91 383.813C1278.11 384.014 1278.23 384.287 1278.23 384.571V460.906C1278.23 461.052 1278.2 461.197 1278.14 461.332C1278.08 461.467 1278 461.588 1277.89 461.688C1277.78 461.789 1277.66 461.866 1277.52 461.916C1277.38 461.966 1277.23 461.987 1277.09 461.978ZM1161.4 459.833H1276.02V385.644H1255.87C1248.36 390.877 1239.4 393.622 1230.25 393.492H1207.15C1202.13 393.508 1197.13 392.708 1192.37 391.124C1188.5 389.855 1184.85 388.002 1181.54 385.63H1161.4V459.833Z" fill="#E6E6E6"/>
<path d="M1151.62 461.978H1034.85C1034.56 461.978 1034.29 461.865 1034.09 461.664C1033.89 461.463 1033.77 461.19 1033.77 460.906V384.532C1033.77 384.247 1033.89 383.975 1034.09 383.773C1034.29 383.572 1034.56 383.459 1034.85 383.459H1055.24C1055.47 383.454 1055.69 383.528 1055.88 383.668C1059.06 386.01 1062.59 387.833 1066.34 389.071C1070.89 390.576 1075.65 391.336 1080.44 391.32H1103.54C1112.35 391.45 1120.97 388.77 1128.15 383.668C1128.33 383.532 1128.56 383.458 1128.79 383.459H1151.62C1151.77 383.457 1151.91 383.484 1152.04 383.537C1152.17 383.591 1152.29 383.669 1152.39 383.769C1152.49 383.869 1152.57 383.988 1152.62 384.119C1152.67 384.25 1152.7 384.39 1152.7 384.532V460.867C1152.7 461.011 1152.68 461.154 1152.63 461.289C1152.58 461.424 1152.5 461.547 1152.4 461.651C1152.3 461.754 1152.18 461.837 1152.04 461.893C1151.91 461.95 1151.77 461.979 1151.62 461.978ZM1035.93 459.833H1150.55V385.644H1129.21C1121.7 390.875 1112.75 393.62 1103.61 393.492H1080.51C1075.49 393.508 1070.49 392.708 1065.73 391.124C1061.85 389.863 1058.19 388.01 1054.88 385.63H1035.92L1035.93 459.833Z" fill="#E6E6E6"/>
<path d="M1026.15 461.978H909.381C909.097 461.978 908.824 461.865 908.623 461.664C908.422 461.463 908.309 461.19 908.309 460.906V384.532C908.307 384.39 908.333 384.25 908.387 384.119C908.44 383.988 908.519 383.869 908.619 383.769C908.719 383.669 908.838 383.591 908.969 383.537C909.1 383.484 909.24 383.457 909.381 383.459H929.773C930 383.456 930.221 383.53 930.401 383.668C933.585 386.005 937.116 387.828 940.865 389.071C945.417 390.576 950.183 391.336 954.978 391.32H978.077C986.891 391.448 995.517 388.768 1002.71 383.668C1002.89 383.528 1003.12 383.454 1003.35 383.459H1026.08C1026.37 383.459 1026.64 383.572 1026.84 383.773C1027.04 383.975 1027.15 384.247 1027.15 384.532V460.867C1027.16 461.147 1027.06 461.42 1026.88 461.628C1026.69 461.836 1026.43 461.962 1026.15 461.978ZM910.454 459.833H1025.07V385.644H1003.82C996.314 390.875 987.356 393.62 978.208 393.492H955.044C950.021 393.51 945.029 392.71 940.263 391.124C936.387 389.863 932.729 388.01 929.42 385.63H910.454V459.833Z" fill="#E6E6E6"/>
<path d="M1277.44 513.239H1290.18V485.156H1264.09L1277.44 513.239Z" fill="#F5F5F5"/>
<path d="M976.275 352.277H965.693C965.771 344.952 965.693 326.352 964.947 283.751C963.639 206.579 961.193 201.817 961.193 201.817L973.737 239.933C976.716 248.896 978.45 258.227 978.891 267.662C980.277 297.38 975.045 321.107 976.275 352.277Z" fill="#E6E6E6"/>
<path d="M984.319 228.436C998.432 207.076 1026.61 195.932 1055.41 185.442C1066.71 181.321 1034.98 232.425 1011.9 255.603C993.985 273.601 976.589 273.195 971.448 290.919C970.454 270.331 972.155 246.839 984.319 228.436Z" fill="#E6E6E6"/>
<path d="M968.151 214.727C957.085 189.744 929.133 157.345 897.715 134.521C885.38 125.561 915.818 202.537 937.282 234.007C953.998 258.545 969.589 273.483 972.022 290.984C982.565 269.088 979.203 239.697 968.151 214.727Z" fill="#E6E6E6"/>
<path d="M969.197 375.376C975.179 375.375 980.934 373.087 985.283 368.979C989.631 364.871 992.244 359.256 992.584 353.283L994.664 332.107H943.73L945.797 353.283C946.141 359.257 948.756 364.872 953.107 368.98C957.457 373.087 963.214 375.375 969.197 375.376Z" fill="#F0F0F0"/>
<path d="M940.433 332.225H997.959L999.607 324.704H938.785L940.433 332.225Z" fill="#F0F0F0"/>
<path d="M943.272 345.123H995.121L996.613 337.602H941.781L943.272 345.123Z" fill="#F0F0F0"/>
<path d="M1115 572.308C1255.06 572.308 1368.61 565.679 1368.61 557.502C1368.61 549.324 1255.06 542.695 1115 542.695C974.937 542.695 861.393 549.324 861.393 557.502C861.393 565.679 974.937 572.308 1115 572.308Z" fill="#F5F5F5"/>
<path d="M1318.11 429.436H911.881V475.425H1318.11V429.436Z" fill="#F6830E"/>
<path opacity="0.3" d="M1318.12 429.436H1230.98V475.425H1318.12V429.436Z" fill="black"/>
<path d="M956.732 475.424H911.881V557.501H956.732V475.424Z" fill="#F6830E"/>
<path opacity="0.3" d="M911.893 475.424V480.015L943.651 489.603V557.501H956.731V475.424H911.893Z" fill="black"/>
<path d="M1318.12 475.424H1273.27V557.501H1318.12V475.424Z" fill="#F6830E"/>
<path opacity="0.2" d="M1318.12 475.424H1273.27V557.501H1318.12V475.424Z" fill="black"/>
<path opacity="0.3" d="M1273.27 475.424V480.015L1305.04 489.603V557.501H1318.12V475.424H1273.27Z" fill="black"/>
<path d="M1230.98 475.424H1186.13V557.501H1230.98V475.424Z" fill="#F6830E"/>
<path opacity="0.3" d="M1186.13 475.424V480.015L1217.9 489.603V557.501H1230.98V475.424H1186.13Z" fill="black"/>
<path d="M1043.87 475.424H999.02V557.501H1043.87V475.424Z" fill="#F6830E"/>
<path opacity="0.2" d="M1043.87 475.424H999.02V557.501H1043.87V475.424Z" fill="black"/>
<path opacity="0.3" d="M999.02 475.424V480.015L1030.79 489.603V557.501H1043.87V475.424H999.02Z" fill="black"/>
<path d="M1262.12 420.398H1013.76C1012.99 420.403 1012.22 420.249 1011.51 419.943C1010.8 419.638 1010.16 419.188 1009.63 418.623C1009.1 418.057 1008.7 417.388 1008.44 416.658C1008.18 415.928 1008.08 415.153 1008.14 414.381L1018.37 252.071C1018.49 250.453 1019.22 248.942 1020.4 247.83C1021.59 246.718 1023.14 246.085 1024.76 246.054H1273.11C1273.89 246.049 1274.65 246.203 1275.36 246.509C1276.07 246.814 1276.71 247.264 1277.24 247.829C1277.77 248.395 1278.18 249.064 1278.43 249.794C1278.69 250.524 1278.79 251.299 1278.74 252.071L1268.51 414.381C1268.38 415.996 1267.65 417.506 1266.47 418.618C1265.29 419.73 1263.74 420.364 1262.12 420.398Z" fill="#263238"/>
<path opacity="0.6" d="M1262.12 420.398H1013.76C1012.99 420.403 1012.22 420.249 1011.51 419.943C1010.8 419.638 1010.16 419.188 1009.63 418.623C1009.1 418.057 1008.7 417.388 1008.44 416.658C1008.18 415.928 1008.08 415.153 1008.14 414.381L1018.37 252.071C1018.49 250.453 1019.22 248.942 1020.4 247.83C1021.59 246.718 1023.14 246.085 1024.76 246.054H1273.11C1273.89 246.049 1274.65 246.203 1275.36 246.509C1276.07 246.814 1276.71 247.264 1277.24 247.829C1277.77 248.395 1278.18 249.064 1278.43 249.794C1278.69 250.524 1278.79 251.299 1278.74 252.071L1268.51 414.381C1268.38 415.996 1267.65 417.506 1266.47 418.618C1265.29 419.73 1263.74 420.364 1262.12 420.398Z" fill="black"/>
<path d="M1260.27 420.398H1011.92C1011.14 420.405 1010.37 420.252 1009.66 419.947C1008.95 419.643 1008.31 419.193 1007.78 418.628C1007.25 418.062 1006.84 417.392 1006.58 416.661C1006.32 415.93 1006.22 415.154 1006.28 414.381L1016.51 252.071C1016.64 250.454 1017.36 248.942 1018.55 247.83C1019.73 246.718 1021.28 246.085 1022.9 246.054H1271.25C1272.03 246.047 1272.8 246.2 1273.51 246.505C1274.22 246.81 1274.86 247.259 1275.39 247.825C1275.92 248.391 1276.32 249.061 1276.58 249.792C1276.84 250.523 1276.94 251.299 1276.88 252.071L1266.65 414.381C1266.52 415.997 1265.8 417.507 1264.62 418.618C1263.44 419.73 1261.89 420.364 1260.27 420.398Z" fill="#263238"/>
<path d="M1259.95 422.465H964.437C963.076 422.452 961.74 422.825 960.583 423.541C959.425 424.256 958.494 425.284 957.897 426.506C957.745 426.824 957.677 427.175 957.699 427.526C957.721 427.876 957.833 428.216 958.023 428.512C958.212 428.808 958.475 429.051 958.785 429.217C959.094 429.383 959.442 429.468 959.793 429.462H1264.53C1264.88 429.468 1265.23 429.383 1265.54 429.217C1265.85 429.051 1266.11 428.808 1266.3 428.512C1266.49 428.216 1266.6 427.876 1266.62 427.526C1266.65 427.175 1266.58 426.824 1266.43 426.506C1265.84 425.292 1264.92 424.269 1263.77 423.554C1262.63 422.839 1261.3 422.462 1259.95 422.465Z" fill="#263238"/>
<path opacity="0.6" d="M1259.95 422.464H1217.93C1216.58 422.46 1215.25 422.837 1214.11 423.552C1212.96 424.267 1212.04 425.291 1211.45 426.506C1211.3 426.823 1211.23 427.172 1211.26 427.522C1211.28 427.872 1211.39 428.211 1211.58 428.506C1211.76 428.802 1212.02 429.045 1212.33 429.212C1212.64 429.379 1212.99 429.465 1213.34 429.462H1264.53C1264.88 429.468 1265.23 429.383 1265.54 429.217C1265.85 429.05 1266.11 428.808 1266.3 428.512C1266.49 428.216 1266.6 427.876 1266.63 427.525C1266.65 427.174 1266.58 426.824 1266.43 426.506C1265.84 425.292 1264.92 424.269 1263.77 423.554C1262.63 422.839 1261.3 422.461 1259.95 422.464Z" fill="black"/>
<path d="M1233.9 427.565H1223.04C1222.79 427.562 1222.55 427.459 1222.37 427.281C1222.2 427.102 1222.1 426.861 1222.1 426.61C1222.1 426.359 1222.2 426.118 1222.37 425.94C1222.55 425.761 1222.79 425.659 1223.04 425.655H1233.9C1234.02 425.655 1234.15 425.68 1234.26 425.728C1234.38 425.776 1234.48 425.846 1234.57 425.935C1234.66 426.024 1234.73 426.129 1234.78 426.245C1234.83 426.361 1234.85 426.485 1234.85 426.61C1234.85 426.736 1234.83 426.86 1234.78 426.976C1234.73 427.091 1234.66 427.197 1234.57 427.285C1234.48 427.374 1234.38 427.444 1234.26 427.492C1234.15 427.54 1234.02 427.565 1233.9 427.565Z" fill="#F6830E"/>
<path opacity="0.7" d="M1094.3 427.565H1083.45C1083.2 427.565 1082.96 427.464 1082.78 427.285C1082.6 427.106 1082.5 426.863 1082.5 426.61C1082.5 426.485 1082.52 426.361 1082.57 426.245C1082.62 426.129 1082.69 426.024 1082.78 425.935C1082.87 425.846 1082.97 425.776 1083.09 425.728C1083.2 425.68 1083.33 425.655 1083.45 425.655H1094.3C1094.42 425.655 1094.55 425.68 1094.66 425.728C1094.78 425.776 1094.88 425.846 1094.97 425.935C1095.06 426.024 1095.13 426.129 1095.18 426.245C1095.23 426.361 1095.25 426.485 1095.25 426.61C1095.25 426.863 1095.15 427.106 1094.97 427.285C1094.79 427.464 1094.55 427.565 1094.3 427.565Z" fill="white"/>
<path d="M1245.13 425.655H1238.03C1237.6 425.655 1237.25 426.007 1237.25 426.44V426.78C1237.25 427.214 1237.6 427.565 1238.03 427.565H1245.13C1245.57 427.565 1245.92 427.214 1245.92 426.78V426.44C1245.92 426.007 1245.57 425.655 1245.13 425.655Z" fill="#F6830E"/>
<path d="M1011.88 408.522L1021.37 257.932C1021.42 257.303 1021.7 256.716 1022.16 256.285C1022.62 255.854 1023.23 255.611 1023.86 255.603H1269.1C1269.4 255.599 1269.69 255.657 1269.97 255.774C1270.25 255.892 1270.5 256.065 1270.7 256.285C1270.91 256.504 1271.07 256.763 1271.17 257.047C1271.26 257.331 1271.3 257.632 1271.28 257.932L1261.8 408.522C1261.75 409.151 1261.46 409.738 1261 410.169C1260.54 410.599 1259.93 410.842 1259.3 410.85H1014.08C1013.77 410.852 1013.48 410.793 1013.2 410.675C1012.92 410.557 1012.68 410.383 1012.47 410.165C1012.26 409.946 1012.1 409.688 1012 409.405C1011.9 409.122 1011.86 408.821 1011.88 408.522Z" fill="white"/>
<path opacity="0.1" d="M1151.39 250.959L1069.71 406.219H1009.45C1009.14 406.223 1008.84 406.165 1008.57 406.047C1008.29 405.929 1008.04 405.754 1007.83 405.533C1007.62 405.313 1007.46 405.052 1007.36 404.767C1007.26 404.482 1007.23 404.179 1007.25 403.877L1016.74 253.3C1016.79 252.671 1017.08 252.082 1017.53 251.649C1017.99 251.216 1018.6 250.97 1019.23 250.959H1151.39Z" fill="#F6830E"/>
<path opacity="0.1" d="M1222.92 250.959L1141.24 406.219H1122.19L1203.88 250.959H1222.92Z" fill="#F6830E"/>
<path opacity="0.1" d="M1266.65 253.3L1257.15 403.877C1257.11 404.508 1256.83 405.098 1256.37 405.532C1255.91 405.965 1255.3 406.21 1254.67 406.218H1161.8L1243.49 250.959H1264.41C1264.72 250.951 1265.02 251.007 1265.3 251.123C1265.59 251.239 1265.84 251.413 1266.05 251.633C1266.26 251.854 1266.42 252.116 1266.53 252.403C1266.63 252.69 1266.67 252.996 1266.65 253.3Z" fill="#F6830E"/>
<path opacity="0.4" d="M1148.52 251.116C1148.49 251.591 1148.28 252.035 1147.93 252.362C1147.58 252.688 1147.13 252.874 1146.65 252.882C1146.43 252.885 1146.2 252.84 1145.99 252.751C1145.78 252.661 1145.59 252.529 1145.44 252.363C1145.28 252.197 1145.17 252 1145.09 251.786C1145.02 251.571 1144.99 251.343 1145.01 251.116C1145.04 250.641 1145.25 250.195 1145.6 249.868C1145.94 249.541 1146.4 249.356 1146.88 249.351C1147.1 249.348 1147.33 249.393 1147.54 249.482C1147.75 249.572 1147.93 249.704 1148.09 249.87C1148.24 250.036 1148.36 250.233 1148.44 250.447C1148.51 250.662 1148.54 250.89 1148.52 251.116Z" fill="white"/>
<path d="M1108 215.002C1100.85 223.19 1096.72 248.291 1102.01 260.638C1107.31 272.986 1045.85 285.346 1096.56 305.411C1147.27 325.476 1187.83 302.207 1173.15 281.422C1158.48 260.638 1174.74 226.029 1157.75 217.33C1142.39 209.404 1122.34 198.587 1108 215.002Z" fill="#263238"/>
<path d="M1092.84 316.072C1090.16 325.228 1087.31 334.384 1084.35 343.54C1081.4 352.696 1078.32 361.747 1075.07 370.838L1073.82 374.265L1073.2 375.978L1073 376.489L1072.69 377.26C1072.49 377.757 1072.19 378.294 1071.93 378.804C1070.65 381.139 1068.74 383.07 1066.42 384.376C1064.32 385.52 1061.96 386.139 1059.57 386.181C1056.21 386.197 1052.88 385.543 1049.77 384.258C1047.23 383.227 1044.77 382.007 1042.41 380.609C1033.83 375.335 1025.97 368.978 1019.02 361.695L1024.66 355.05C1026.55 356.267 1028.58 357.562 1030.54 358.778C1032.51 359.995 1034.56 361.172 1036.55 362.336C1040.44 364.616 1044.46 366.673 1048.59 368.497C1050.47 369.326 1052.42 370.013 1054.4 370.55C1055.77 371.006 1057.22 371.175 1058.67 371.047C1059.03 371.047 1058.97 370.838 1058.67 370.956C1058.36 371.073 1058.04 371.414 1058.02 371.374C1058.01 371.335 1058.02 371.374 1058.02 371.296C1058.03 371.27 1058.03 371.243 1058.02 371.217L1058.13 370.89L1058.63 369.203L1059.63 365.802L1067.62 338.334C1070.35 329.178 1073.14 320.022 1076.02 310.866L1092.84 316.072Z" fill="#B65B52"/>
<path d="M1024.25 354.84L1009.05 349.216L1015.08 365.278C1015.08 365.278 1025.81 366.821 1029.97 361.184L1026.58 356.645C1025.99 355.833 1025.18 355.206 1024.25 354.84Z" fill="#B55B52"/>
<path d="M995.646 353.886L1001.43 367.058L1015.15 365.253L1009.11 349.19L995.646 353.886Z" fill="#B55B52"/>
<path d="M1081.75 292.384C1074.79 294.15 1069.98 322.756 1069.98 322.756L1089.14 335.836C1089.14 335.836 1107.45 306.981 1102.16 299.343C1096.53 291.325 1091.89 289.807 1081.75 292.384Z" fill="#F6830E"/>
<path opacity="0.5" d="M1081.75 292.384C1074.79 294.15 1069.98 322.756 1069.98 322.756L1089.14 335.836C1089.14 335.836 1107.45 306.981 1102.16 299.343C1096.53 291.325 1091.89 289.807 1081.75 292.384Z" fill="white"/>
<path opacity="0.2" d="M1081.12 302.782L1096 306.222L1097.42 320.78C1094.9 325.919 1092.12 330.927 1089.09 335.783L1077.46 327.935C1077.97 321.198 1079.23 307.36 1081.12 302.782Z" fill="black"/>
<path d="M1081.75 292.383C1081.75 292.383 1073.71 295.209 1089.81 394.172H1158.3C1157.14 366.298 1157.12 349.098 1170.43 291.899C1160.85 289.917 1151.13 288.636 1141.36 288.067C1129.83 287.504 1120.43 287.138 1110.25 288.067C1096.9 289.283 1081.75 292.383 1081.75 292.383Z" fill="#F6830E"/>
<path opacity="0.5" d="M1081.75 292.383C1081.75 292.383 1073.71 295.209 1089.81 394.172H1158.3C1157.14 366.298 1157.12 349.098 1170.43 291.899C1160.85 289.917 1151.13 288.636 1141.36 288.067C1129.83 287.504 1120.43 287.138 1110.25 288.067C1096.9 289.283 1081.75 292.383 1081.75 292.383Z" fill="white"/>
<path opacity="0.2" d="M1154.32 318.452L1163.16 325.986C1161.28 335.992 1160.01 344.298 1159.24 351.74C1157.55 344.311 1153.34 324.141 1154.32 318.452Z" fill="black"/>
<path d="M1138.27 253.04C1136.31 263.046 1134.35 281.384 1141.36 288.068C1141.36 288.068 1134.82 303.057 1117.49 303.057C1100.15 303.057 1110.25 288.068 1110.25 288.068C1121.41 285.452 1121.12 277.12 1119.19 269.35L1138.27 253.04Z" fill="#B55B52"/>
<path d="M1139.13 284.326C1137.49 287.662 1132.18 295.287 1117.34 298.008C1116.93 298.084 1116.5 297.999 1116.15 297.772C1113.38 295.837 1111.65 291.743 1112.87 286.995C1112.95 286.703 1112.95 286.394 1112.86 286.104C1112.78 285.814 1112.61 285.553 1112.39 285.352C1112.16 285.15 1111.88 285.016 1111.58 284.964C1111.29 284.913 1110.98 284.945 1110.7 285.059C1109.56 285.535 1108.46 286.113 1107.43 286.785C1107.2 286.936 1107.02 287.143 1106.89 287.387C1105.81 289.427 1101.41 299.421 1114.67 305.581C1114.89 305.672 1115.11 305.725 1115.34 305.738C1123.19 305.895 1136.91 304.352 1145.58 288.734C1145.74 288.452 1145.81 288.131 1145.78 287.81C1145.75 287.489 1145.64 287.183 1145.44 286.929C1144.27 285.653 1142.92 284.564 1141.42 283.698C1141.23 283.577 1141.02 283.497 1140.8 283.464C1140.58 283.43 1140.35 283.443 1140.14 283.502C1139.92 283.561 1139.72 283.665 1139.55 283.807C1139.38 283.949 1139.23 284.126 1139.13 284.326Z" fill="#FAFAFA"/>
<path d="M1142.77 325.502L1125.11 324.992C1124.93 324.993 1124.74 324.955 1124.57 324.88C1124.41 324.806 1124.25 324.697 1124.13 324.559C1124.01 324.422 1123.91 324.261 1123.86 324.085C1123.8 323.909 1123.78 323.723 1123.8 323.54L1123.97 321.356C1124.02 320.988 1124.21 320.652 1124.49 320.411C1124.77 320.17 1125.13 320.041 1125.5 320.048L1143.16 320.558C1143.35 320.556 1143.53 320.595 1143.7 320.67C1143.87 320.745 1144.02 320.856 1144.15 320.995C1144.27 321.133 1144.36 321.297 1144.42 321.474C1144.47 321.651 1144.49 321.838 1144.47 322.023L1144.3 324.194C1144.25 324.561 1144.06 324.897 1143.78 325.138C1143.5 325.379 1143.14 325.509 1142.77 325.502Z" fill="#FAFAFA"/>
<path opacity="0.2" d="M1130.49 259.697L1119.19 269.337C1119.67 271.145 1120 272.992 1120.16 274.856C1124.41 274.242 1130.27 269.559 1130.72 265.099C1130.97 263.299 1130.89 261.468 1130.49 259.697Z" fill="black"/>
<path d="M1151.45 234.112C1148.3 250.553 1147.32 257.577 1137.85 264.994C1123.61 276.164 1104.1 268.682 1102.3 251.639C1100.66 236.296 1106.09 211.994 1123.23 207.494C1126.98 206.496 1130.93 206.473 1134.69 207.428C1138.46 208.382 1141.92 210.282 1144.75 212.947C1147.57 215.613 1149.67 218.956 1150.85 222.659C1152.02 226.363 1152.23 230.305 1151.45 234.112Z" fill="#B55B52"/>
<path d="M1142.1 221.947C1140.06 232.241 1139.58 245.883 1149.01 245.883C1158.44 245.883 1165.83 229.834 1157.7 217.264C1149.56 204.695 1143.29 215.878 1142.1 221.947Z" fill="#263238"/>
<path d="M1158.4 223.217C1158.4 234.413 1144.3 228.88 1138.06 224.054C1131.82 219.227 1131.52 219.75 1119.96 219.737C1108.4 219.724 1106.08 218.926 1102.67 213.407C1099.25 207.887 1099.57 204.251 1107.26 205.415C1114.95 206.579 1108.49 198.731 1114.22 194.375C1119.95 190.019 1126.73 191.118 1134.57 201.059C1142.4 211 1158.4 203.819 1158.4 223.217Z" fill="#263238"/>
<path d="M1154.26 248.741C1155.74 243.681 1154.29 238.799 1151.01 237.838C1147.73 236.877 1143.87 240.2 1142.39 245.26C1140.9 250.321 1142.36 255.202 1145.64 256.163C1148.92 257.125 1152.78 253.802 1154.26 248.741Z" fill="white"/>
<path d="M1128.08 261.397C1125.04 261.397 1122.04 260.778 1119.25 259.579C1119.19 259.555 1119.14 259.519 1119.09 259.473C1119.05 259.428 1119.01 259.374 1118.99 259.314C1118.96 259.254 1118.95 259.19 1118.95 259.126C1118.95 259.061 1118.96 258.997 1118.99 258.938C1119.04 258.819 1119.14 258.725 1119.26 258.676C1119.39 258.628 1119.52 258.628 1119.64 258.677C1122.27 259.805 1125.1 260.394 1127.96 260.41C1130.82 260.425 1133.65 259.867 1136.29 258.768C1138.86 257.717 1141.19 256.163 1143.15 254.198C1145.11 252.232 1146.66 249.895 1147.7 247.323C1151.62 236.088 1155.63 222.066 1151 213.315C1150.06 211.612 1148.78 210.131 1147.22 208.972C1145.66 207.814 1143.87 207.007 1141.97 206.605C1141.84 206.571 1141.74 206.489 1141.67 206.377C1141.6 206.264 1141.59 206.13 1141.62 206.004C1141.65 205.877 1141.73 205.77 1141.85 205.704C1141.96 205.638 1142.09 205.618 1142.22 205.65C1144.25 206.087 1146.16 206.956 1147.82 208.197C1149.49 209.438 1150.86 211.023 1151.86 212.844C1156.67 221.883 1152.66 236.179 1148.62 247.624C1147.52 250.325 1145.89 252.779 1143.83 254.841C1141.77 256.903 1139.32 258.532 1136.62 259.632C1133.92 260.768 1131.01 261.368 1128.08 261.397Z" fill="white"/>
<path opacity="0.6" d="M1153.78 248.788C1152.62 252.712 1149.95 255.472 1147.82 254.857C1145.69 254.242 1144.9 250.501 1146.07 246.525C1147.23 242.549 1149.9 239.828 1152.03 240.456C1154.16 241.084 1154.95 244.811 1153.78 248.788Z" fill="#F6830E"/>
<path d="M1120.61 257.414L1115.48 256.426C1114.58 256.252 1113.71 256.841 1113.54 257.742L1113.48 258.037C1113.31 258.938 1113.9 259.809 1114.8 259.983L1119.92 260.972C1120.82 261.146 1121.69 260.556 1121.87 259.655L1121.93 259.36C1122.1 258.459 1121.51 257.588 1120.61 257.414Z" fill="white"/>
<path d="M1113.91 235.485C1113.91 235.485 1110.88 240.992 1108 243.464C1109.56 245.361 1112.7 244.995 1112.7 244.995L1113.91 235.485Z" fill="#A02724"/>
<path d="M1116.81 252.031H1116.92C1119.89 252.265 1122.83 251.368 1125.16 249.52C1125.21 249.471 1125.24 249.405 1125.24 249.337C1125.24 249.268 1125.21 249.203 1125.16 249.154C1125.14 249.13 1125.11 249.112 1125.08 249.099C1125.05 249.087 1125.02 249.08 1124.99 249.08C1124.96 249.08 1124.92 249.087 1124.89 249.099C1124.86 249.112 1124.83 249.13 1124.81 249.154C1122.59 250.903 1119.79 251.757 1116.96 251.547C1116.93 251.542 1116.9 251.543 1116.86 251.552C1116.83 251.56 1116.8 251.575 1116.77 251.596C1116.74 251.617 1116.72 251.643 1116.71 251.673C1116.69 251.703 1116.68 251.736 1116.68 251.77C1116.67 251.821 1116.68 251.874 1116.7 251.921C1116.72 251.967 1116.76 252.006 1116.81 252.031Z" fill="#263238"/>
<path d="M1131.77 229.01C1131.84 229.051 1131.93 229.073 1132.01 229.073C1132.1 229.073 1132.18 229.051 1132.25 229.01C1132.37 228.935 1132.44 228.82 1132.47 228.688C1132.5 228.557 1132.48 228.419 1132.41 228.304C1131.78 227.256 1130.92 226.373 1129.88 225.727C1128.85 225.081 1127.67 224.691 1126.46 224.589C1126.32 224.589 1126.19 224.642 1126.09 224.737C1126 224.833 1125.94 224.963 1125.94 225.099C1125.94 225.232 1125.99 225.36 1126.08 225.455C1126.17 225.55 1126.3 225.606 1126.43 225.609C1127.48 225.709 1128.49 226.055 1129.38 226.619C1130.27 227.182 1131.01 227.948 1131.55 228.853C1131.61 228.924 1131.68 228.979 1131.77 229.01Z" fill="#263238"/>
<path d="M1124.27 235.709C1124.05 237.017 1123.15 238.024 1122.26 237.88C1121.37 237.736 1120.86 236.572 1121.08 235.159C1121.31 233.747 1122.22 232.844 1123.1 232.988C1123.97 233.132 1124.51 234.362 1124.27 235.709Z" fill="#263238"/>
<path d="M1109.02 233.118C1108.8 234.426 1107.9 235.433 1107.01 235.289C1106.12 235.145 1105.61 233.915 1105.83 232.568C1106.05 231.221 1106.97 230.24 1107.85 230.397C1108.72 230.554 1109.26 231.757 1109.02 233.118Z" fill="#263238"/>
<path d="M1108.23 230.541L1105.14 229.05C1105.14 229.05 1106.37 231.862 1108.23 230.541Z" fill="#263238"/>
<path d="M1123.48 233.131L1120.39 231.653C1120.39 231.653 1121.62 234.466 1123.48 233.131Z" fill="#263238"/>
<path d="M1103.84 224.001C1103.92 224.048 1104.01 224.073 1104.1 224.073C1104.2 224.073 1104.29 224.048 1104.37 224.001C1105.17 223.323 1106.13 222.849 1107.16 222.622C1108.19 222.394 1109.26 222.418 1110.28 222.693C1110.41 222.738 1110.55 222.73 1110.67 222.672C1110.79 222.613 1110.89 222.508 1110.93 222.379C1110.98 222.251 1110.97 222.11 1110.91 221.987C1110.85 221.865 1110.75 221.77 1110.62 221.725C1109.44 221.391 1108.21 221.345 1107.01 221.591C1105.82 221.837 1104.7 222.367 1103.75 223.138C1103.7 223.176 1103.65 223.226 1103.62 223.283C1103.58 223.341 1103.56 223.404 1103.55 223.471C1103.54 223.537 1103.55 223.605 1103.57 223.669C1103.59 223.733 1103.62 223.793 1103.66 223.844C1103.7 223.914 1103.77 223.969 1103.84 224.001Z" fill="#263238"/>
<path d="M1087.2 410.85C1087.2 410.85 1087.02 401.485 1089.82 394.173H1158.29C1158.29 394.173 1164.45 404.114 1166.05 410.85H1087.2Z" fill="#F6830E"/>
<path d="M1159.33 390.156L1159.86 396.277C1160.11 396.761 1159.55 397.245 1158.75 397.245H1089.43C1088.81 397.245 1088.3 396.945 1088.26 396.552L1087.63 390.418C1087.63 389.999 1088.13 389.633 1088.81 389.633H1158.14C1158.36 389.609 1158.59 389.644 1158.8 389.736C1159.01 389.828 1159.19 389.973 1159.33 390.156Z" fill="#F6830E"/>
<path opacity="0.3" d="M1159.33 390.156L1159.86 396.277C1160.11 396.761 1159.55 397.245 1158.75 397.245H1089.43C1088.81 397.245 1088.3 396.945 1088.26 396.552L1087.63 390.418C1087.63 389.999 1088.13 389.633 1088.81 389.633H1158.14C1158.36 389.609 1158.59 389.644 1158.8 389.736C1159.01 389.828 1159.19 389.973 1159.33 390.156Z" fill="#FAFAFA"/>
<path d="M1150 397.9H1151.86C1152.24 397.9 1152.51 397.717 1152.49 397.481L1151.62 389.516C1151.62 389.28 1151.27 389.097 1150.91 389.097H1149.01C1148.63 389.097 1148.35 389.28 1148.38 389.516L1149.24 397.481C1149.31 397.717 1149.64 397.9 1150 397.9Z" fill="#F6830E"/>
<path d="M1094.69 397.9H1096.54C1096.91 397.9 1097.2 397.717 1097.17 397.481L1096.3 389.516C1096.3 389.28 1095.96 389.097 1095.58 389.097H1093.72C1093.35 389.097 1093.07 389.28 1093.09 389.516L1093.97 397.481C1093.99 397.717 1094.32 397.9 1094.69 397.9Z" fill="#F6830E"/>
<path d="M1122.35 397.9H1124.16C1124.52 397.9 1124.81 397.717 1124.78 397.481L1123.91 389.516C1123.91 389.28 1123.55 389.097 1123.19 389.097H1121.33C1120.96 389.097 1120.68 389.28 1120.7 389.516L1121.58 397.481C1121.66 397.717 1121.97 397.9 1122.35 397.9Z" fill="#F6830E"/>
<path d="M1176.29 311.284C1179.3 321.051 1182.19 330.869 1184.97 340.74L1189.14 355.468L1191.22 362.793L1191.74 364.598L1192 365.501L1192.07 365.71L1191.86 365.383C1191.53 364.91 1191.12 364.494 1190.66 364.154C1189.63 363.409 1188.41 362.977 1187.15 362.911C1186.2 362.866 1185.24 363.054 1184.38 363.46C1183.44 363.97 1183.53 364.088 1183.61 363.997C1183.83 363.804 1184.03 363.589 1184.21 363.356C1184.82 362.585 1185.39 361.777 1185.91 360.936C1187.06 359.052 1188.2 356.933 1189.27 354.762C1191.49 350.42 1193.49 345.815 1195.52 341.185C1197.55 336.555 1199.45 331.872 1201.41 327.15C1203.37 322.428 1205.24 317.68 1207.18 312.998L1215.53 315.483C1213.36 325.685 1210.83 335.705 1207.69 345.685C1206.14 350.694 1204.43 355.652 1202.45 360.674C1201.43 363.186 1200.35 365.697 1199 368.3C1198.28 369.708 1197.48 371.071 1196.59 372.381C1196.04 373.203 1195.43 373.981 1194.76 374.709C1193.7 375.913 1192.41 376.896 1190.97 377.6C1189.53 378.3 1187.94 378.632 1186.34 378.568C1184.44 378.462 1182.62 377.793 1181.11 376.645C1180.14 375.917 1179.31 375.033 1178.64 374.029C1178.21 373.384 1177.84 372.706 1177.52 372.002C1177.41 371.714 1177.28 371.413 1177.18 371.151L1176.94 370.51L1176.6 369.582L1175.92 367.737C1175.03 365.292 1174.12 362.846 1173.3 360.4C1171.62 355.508 1169.95 350.629 1168.38 345.724C1165.17 335.923 1162.18 326.073 1159.41 316.176L1176.29 311.284Z" fill="#B65B52"/>
<path d="M1170.43 291.899C1177.3 293.979 1187.8 320.91 1187.8 320.91L1161.18 339.942C1161.18 339.942 1149.22 316.921 1152.09 308.053C1155.1 298.818 1162.61 289.518 1170.43 291.899Z" fill="#F6830E"/>
<path opacity="0.5" d="M1170.43 291.899C1177.3 293.979 1187.8 320.91 1187.8 320.91L1161.18 339.942C1161.18 339.942 1149.22 316.921 1152.09 308.053C1155.1 298.818 1162.61 289.518 1170.43 291.899Z" fill="white"/>
<path d="M1207.48 316.581L1203.83 300.492L1219 308.497C1219 308.497 1219.18 319.327 1213.06 322.741L1207.48 316.581Z" fill="#B55B52"/>
<path d="M1210.18 287.727L1219.86 294.594L1219 308.498L1203.83 300.493L1210.18 287.727Z" fill="#B55B52"/>
<path d="M938.421 206.761H1044.37C1046.39 206.742 1048.4 207.142 1050.26 207.936C1052.12 208.731 1053.79 209.903 1055.18 211.378C1056.56 212.853 1057.62 214.599 1058.3 216.507C1058.97 218.414 1059.25 220.44 1059.1 222.457L1056.14 270.409C1055.82 274.63 1053.93 278.578 1050.85 281.481C1047.76 284.384 1043.71 286.033 1039.48 286.105H1027.21L1032.22 302.572L1008.26 286.105H933.568C931.545 286.125 929.54 285.725 927.68 284.93C925.82 284.135 924.145 282.964 922.76 281.488C921.376 280.013 920.313 278.267 919.638 276.36C918.963 274.453 918.692 272.426 918.84 270.409L921.77 222.457C922.095 218.238 923.981 214.292 927.06 211.39C930.139 208.487 934.19 206.837 938.421 206.761Z" fill="#F6830E"/>
<path d="M1034.66 231.875H945.066C944.685 231.873 944.31 231.792 943.962 231.637C943.615 231.482 943.303 231.256 943.048 230.975C942.792 230.693 942.597 230.362 942.476 230.001C942.355 229.64 942.311 229.258 942.345 228.879C942.404 228.086 942.757 227.342 943.335 226.795C943.914 226.249 944.676 225.937 945.471 225.923H1035.08C1035.46 225.924 1035.84 226.003 1036.18 226.154C1036.53 226.306 1036.84 226.527 1037.1 226.805C1037.36 227.082 1037.55 227.409 1037.68 227.766C1037.81 228.123 1037.86 228.502 1037.83 228.879C1037.78 229.688 1037.43 230.448 1036.84 231.005C1036.25 231.562 1035.47 231.873 1034.66 231.875Z" fill="white"/>
<path d="M981.585 249.389H943.993C943.612 249.392 943.235 249.316 942.885 249.166C942.535 249.016 942.22 248.795 941.96 248.517C941.699 248.24 941.499 247.911 941.372 247.552C941.245 247.194 941.193 246.813 941.22 246.433C941.279 245.637 941.634 244.892 942.215 244.344C942.796 243.797 943.561 243.488 944.359 243.477H981.99C982.372 243.472 982.751 243.547 983.102 243.696C983.453 243.845 983.77 244.066 984.032 244.344C984.294 244.621 984.495 244.95 984.623 245.31C984.751 245.67 984.803 246.052 984.776 246.433C984.714 247.237 984.35 247.987 983.759 248.535C983.167 249.083 982.391 249.388 981.585 249.389Z" fill="white"/>
<path d="M1013.8 266.904H942.921C942.54 266.906 942.163 266.83 941.813 266.68C941.463 266.53 941.148 266.31 940.888 266.032C940.627 265.754 940.427 265.426 940.3 265.067C940.172 264.708 940.121 264.327 940.148 263.947C940.203 263.15 940.558 262.404 941.139 261.856C941.721 261.308 942.488 260.999 943.287 260.991H1014.17C1014.55 260.987 1014.93 261.061 1015.28 261.211C1015.63 261.36 1015.94 261.581 1016.2 261.859C1016.47 262.137 1016.67 262.466 1016.79 262.826C1016.92 263.185 1016.97 263.567 1016.94 263.947C1016.88 264.744 1016.53 265.489 1015.95 266.036C1015.36 266.583 1014.6 266.893 1013.8 266.904Z" fill="white"/>
<path d="M1009.2 249.389H994.376C993.995 249.392 993.618 249.316 993.268 249.166C992.918 249.016 992.603 248.795 992.343 248.517C992.082 248.24 991.882 247.911 991.755 247.552C991.627 247.194 991.576 246.813 991.603 246.433C991.664 245.638 992.02 244.894 992.601 244.348C993.181 243.801 993.945 243.491 994.742 243.477H1009.55C1009.93 243.472 1010.31 243.547 1010.66 243.696C1011.01 243.845 1011.33 244.066 1011.59 244.344C1011.85 244.622 1012.05 244.951 1012.17 245.311C1012.3 245.671 1012.35 246.053 1012.32 246.433C1012.26 247.227 1011.91 247.97 1011.33 248.517C1010.75 249.064 1009.99 249.375 1009.2 249.389Z" fill="white"/>
<path d="M1085.95 120.564H1028.19C1024.89 120.613 1021.74 121.893 1019.34 124.151C1016.94 126.409 1015.47 129.483 1015.23 132.768L1012.98 170.098C1012.86 171.667 1013.08 173.243 1013.61 174.726C1014.13 176.208 1014.96 177.566 1016.04 178.712C1017.12 179.859 1018.42 180.77 1019.87 181.387C1021.31 182.005 1022.87 182.316 1024.45 182.302H1033.9L1028.44 195.12L1048.66 182.302H1082.17C1085.46 182.252 1088.62 180.973 1091.02 178.715C1093.42 176.456 1094.88 173.383 1095.13 170.098L1097.42 132.768C1097.53 131.198 1097.32 129.622 1096.79 128.14C1096.26 126.657 1095.44 125.3 1094.36 124.153C1093.28 123.007 1091.98 122.096 1090.53 121.478C1089.08 120.86 1087.52 120.549 1085.95 120.564Z" fill="#F6830E"/>
<g opacity="0.5">
<path d="M1085.95 120.564H1028.19C1024.9 120.613 1021.74 121.893 1019.34 124.151C1016.94 126.409 1015.48 129.483 1015.23 132.768L1012.98 170.098C1012.87 171.667 1013.08 173.243 1013.61 174.726C1014.13 176.208 1014.96 177.566 1016.04 178.712C1017.12 179.859 1018.42 180.77 1019.87 181.387C1021.32 182.005 1022.88 182.316 1024.45 182.302H1033.91L1028.44 195.12L1048.66 182.302H1082.17C1085.47 182.252 1088.62 180.973 1091.02 178.715C1093.42 176.456 1094.89 173.383 1095.13 170.098L1097.42 132.768C1097.53 131.198 1097.32 129.622 1096.79 128.14C1096.27 126.657 1095.44 125.3 1094.36 124.153C1093.28 123.007 1091.98 122.096 1090.53 121.478C1089.08 120.86 1087.52 120.549 1085.95 120.564Z" fill="#FAFAFA"/>
</g>
<path d="M1058.1 157.541C1057.9 158.363 1057.43 159.095 1056.77 159.619C1056.11 160.143 1055.29 160.429 1054.44 160.432H1051.03C1051.03 159.464 1051.11 158.875 1051.12 158.666C1051.17 156.781 1051.65 154.932 1052.53 153.264C1053.77 151.404 1055.34 149.79 1057.16 148.503C1058.62 147.448 1059.99 146.285 1061.27 145.023C1061.95 144.22 1062.35 143.221 1062.42 142.172C1062.47 141.477 1062.36 140.779 1062.1 140.133C1061.84 139.487 1061.43 138.909 1060.92 138.444C1059.65 137.357 1058.01 136.804 1056.34 136.901C1054.58 136.853 1052.87 137.427 1051.5 138.523C1050.68 139.195 1050.01 140.027 1049.54 140.969C1049.18 141.656 1048.63 142.224 1047.96 142.601C1047.28 142.978 1046.51 143.147 1045.74 143.088C1045.19 143.019 1044.66 142.812 1044.21 142.485C1043.75 142.158 1043.39 141.722 1043.15 141.217C1042.91 140.712 1042.8 140.155 1042.83 139.597C1042.87 139.04 1043.04 138.499 1043.34 138.026C1044.12 136.701 1045.14 135.524 1046.33 134.546C1049.17 132.268 1052.73 131.092 1056.36 131.237C1060.64 131.237 1063.96 132.349 1066.36 134.586C1067.48 135.549 1068.36 136.759 1068.93 138.121C1069.51 139.482 1069.76 140.959 1069.67 142.434C1069.55 144.11 1068.97 145.721 1067.99 147.09C1066.15 149.352 1064.03 151.366 1061.67 153.081C1060.45 153.933 1059.4 155.001 1058.56 156.233C1058.35 156.645 1058.19 157.086 1058.1 157.541ZM1050.63 166.932V166.514C1050.7 165.569 1051.12 164.684 1051.81 164.034C1052.51 163.385 1053.41 163.019 1054.36 163.008H1054.83C1055.29 163.002 1055.74 163.089 1056.15 163.266C1056.57 163.442 1056.95 163.704 1057.26 164.033C1057.57 164.363 1057.81 164.754 1057.96 165.181C1058.11 165.608 1058.17 166.062 1058.14 166.514V166.932C1058.07 167.879 1057.65 168.765 1056.96 169.417C1056.27 170.068 1055.36 170.437 1054.41 170.451H1054C1053.54 170.465 1053.08 170.383 1052.66 170.209C1052.23 170.035 1051.85 169.773 1051.53 169.441C1051.21 169.109 1050.97 168.715 1050.82 168.282C1050.66 167.85 1050.6 167.39 1050.63 166.932Z" fill="white"/>
</svg>
