<svg width="24" height="24" viewBox="0 0 24 24" fill="none" xmlns="http://www.w3.org/2000/svg">
<path fill-rule="evenodd" clip-rule="evenodd" d="M20.5292 4.53009C20.6617 4.38792 20.7338 4.19987 20.7304 4.00557C20.7269 3.81127 20.6482 3.62588 20.5108 3.48847C20.3734 3.35106 20.188 3.27234 19.9937 3.26892C19.7994 3.26549 19.6114 3.33761 19.4692 3.47009L3.46918 19.4701C3.39549 19.5388 3.33639 19.6216 3.2954 19.7136C3.2544 19.8056 3.23236 19.9049 3.23059 20.0056C3.22881 20.1063 3.24733 20.2063 3.28505 20.2997C3.32278 20.3931 3.37892 20.4779 3.45014 20.5491C3.52136 20.6203 3.60619 20.6765 3.69958 20.7142C3.79297 20.7519 3.893 20.7705 3.9937 20.7687C4.0944 20.7669 4.19372 20.7449 4.28572 20.7039C4.37771 20.6629 4.46052 20.6038 4.52918 20.5301L7.37618 17.6831C8.74318 18.3271 10.3162 18.7501 11.9992 18.7501C14.6832 18.7501 17.0892 17.6731 18.8192 16.3451C19.6862 15.6801 20.4022 14.9381 20.9082 14.2091C21.4002 13.5001 21.7492 12.7231 21.7492 12.0001C21.7492 11.2771 21.3992 10.5001 20.9082 9.79109C20.4022 9.06209 19.6862 8.32109 18.8202 7.65509C18.5572 7.45409 18.2802 7.25809 17.9882 7.07209L20.5292 4.53009ZM16.8992 8.16109L15.1282 9.93209C15.6056 10.6532 15.8192 11.5172 15.7326 12.3778C15.646 13.2383 15.2646 14.0424 14.6531 14.654C14.0415 15.2655 13.2374 15.6469 12.3768 15.7335C11.5163 15.8201 10.6523 15.6066 9.93118 15.1291L8.51418 16.5451C9.61932 17.0032 10.8029 17.2427 11.9992 17.2501C14.2862 17.2501 16.3792 16.3271 17.9062 15.1551C18.6682 14.5701 19.2702 13.9371 19.6762 13.3541C20.0952 12.7501 20.2492 12.2771 20.2492 12.0001C20.2492 11.7231 20.0952 11.2501 19.6762 10.6461C19.2702 10.0631 18.6682 9.43009 17.9062 8.84509C17.5932 8.60509 17.2572 8.37509 16.8992 8.16109ZM11.0282 14.0311C11.448 14.2316 11.9197 14.297 12.3783 14.2184C12.8369 14.1397 13.2598 13.9208 13.5888 13.5918C13.9178 13.2627 14.1368 12.8398 14.2154 12.3812C14.2941 11.9227 14.2287 11.451 14.0282 11.0311L11.0282 14.0311Z" fill="#787878"/>
<path d="M12 5.25C13.032 5.25 14.024 5.41 14.951 5.681C14.9916 5.69311 15.0283 5.71562 15.0575 5.74629C15.0867 5.77697 15.1074 5.81474 15.1175 5.85588C15.1276 5.89701 15.1268 5.94007 15.1151 5.98078C15.1035 6.0215 15.0814 6.05846 15.051 6.088L14.227 6.913C14.1964 6.94335 14.1586 6.96543 14.1172 6.97715C14.0757 6.98887 14.0319 6.98985 13.99 6.98C13.3375 6.82845 12.6699 6.75129 12 6.75C9.713 6.75 7.62 7.673 6.093 8.845C5.331 9.43 4.729 10.063 4.323 10.646C3.904 11.25 3.75 11.723 3.75 12C3.75 12.277 3.904 12.75 4.323 13.354C4.677 13.864 5.181 14.411 5.811 14.931C5.927 15.026 5.938 15.201 5.831 15.308L5.123 16.017C5.07964 16.061 5.02132 16.087 4.95962 16.09C4.89793 16.093 4.83738 16.0726 4.79 16.033C4.14617 15.5021 3.57494 14.8888 3.091 14.209C2.6 13.5 2.25 12.723 2.25 12C2.25 11.277 2.6 10.5 3.091 9.791C3.597 9.062 4.313 8.321 5.179 7.655C6.91 6.327 9.316 5.25 12 5.25Z" fill="#787878"/>
<path d="M12.0005 8.25C12.1185 8.25 12.2365 8.255 12.3515 8.266C12.5485 8.285 12.6195 8.52 12.4805 8.66L11.2675 9.872C10.9445 9.98367 10.6511 10.1673 10.4094 10.4089C10.1677 10.6506 9.98414 10.944 9.87246 11.267L8.66046 12.48C8.52046 12.62 8.28546 12.548 8.26646 12.351C8.2176 11.8312 8.27781 11.3069 8.44324 10.8117C8.60868 10.3166 8.87569 9.86137 9.22718 9.47532C9.57868 9.08928 10.0069 8.78089 10.4845 8.56989C10.962 8.35889 11.4784 8.24994 12.0005 8.25Z" fill="#787878"/>
</svg>
