<svg width="160" height="160" viewBox="0 0 160 160" fill="none" xmlns="http://www.w3.org/2000/svg">
<circle cx="80" cy="80" r="80" fill="#13A8DA"/>
<path d="M89.5156 53.7106C93.0594 59.4506 96.4412 68.7169 97.2944 83.5438L103.857 91.55C105.407 93.4902 106.251 95.9002 106.25 98.3837V112.812C106.25 113.272 106.106 113.719 105.837 114.092C105.569 114.464 105.19 114.743 104.754 114.888C104.319 115.033 103.848 115.037 103.41 114.9C102.972 114.764 102.588 114.492 102.312 114.125L97.3906 107.562C96.6644 106.591 95.5531 105.812 94.1006 105.069C93.1644 104.596 92.2894 104.229 91.3575 103.835L90.5 103.472C87.4375 105.344 83.7188 106.25 80 106.25C76.2812 106.25 72.5625 105.344 69.5 103.472C69.2054 103.6 68.9167 103.723 68.6337 103.839C67.7106 104.229 66.8356 104.596 65.8994 105.069C64.4469 105.812 63.3356 106.591 62.6094 107.562L57.6875 114.125C57.412 114.492 57.028 114.764 56.5897 114.9C56.1515 115.037 55.6813 115.033 55.2458 114.888C54.8102 114.743 54.4314 114.464 54.1629 114.092C53.8945 113.719 53.75 113.272 53.75 112.812V98.3837C53.75 95.8997 54.5955 93.4896 56.1475 91.55L56.165 91.5281L62.7144 83.5438C63.5762 69.0056 66.9537 59.77 70.4756 53.9862C72.5144 50.6306 74.5881 48.465 76.2069 47.1175C77.0223 46.4347 77.903 45.8338 78.8363 45.3238C79.1903 45.1186 79.5909 45.0072 80 45C80.4419 45 80.7437 45.1181 81.0938 45.28C81.2571 45.3529 81.4685 45.4623 81.7281 45.6081C82.2444 45.8969 82.94 46.3388 83.7537 46.9862C85.3856 48.2856 87.4725 50.3944 89.5156 53.7106ZM86.5625 71.25C86.5625 66.4156 83.6225 62.5 80 62.5C76.3775 62.5 73.4375 66.4156 73.4375 71.25C73.4375 76.0844 76.3775 80 80 80C83.6225 80 86.5625 76.0844 86.5625 71.25Z" fill="white"/>
<path d="M79.9999 108.437C82.1874 108.437 84.3705 108.236 86.4705 107.829L81.7499 114.125C81.5462 114.397 81.2819 114.617 80.9782 114.769C80.6745 114.921 80.3395 115 79.9999 115C79.6603 115 79.3254 114.921 79.0216 114.769C78.7179 114.617 78.4537 114.397 78.2499 114.125L73.5293 107.829C75.6293 108.236 77.8168 108.437 79.9999 108.437Z" fill="white"/>
</svg>
