<svg width="72" height="72" viewBox="0 0 72 72" fill="none" xmlns="http://www.w3.org/2000/svg">
<g filter="url(#filter0_d_2850_1468)">
<circle cx="33" cy="34" r="30" fill="white"/>
</g>
<path d="M42.6401 38.3467L39.2534 37.96C38.8552 37.9132 38.4515 37.9573 38.0728 38.0889C37.6941 38.2206 37.3501 38.4363 37.0667 38.72L34.6134 41.1733C30.8286 39.2479 27.7521 36.1715 25.8267 32.3867L28.2934 29.92C28.8667 29.3467 29.1467 28.5467 29.0534 27.7333L28.6667 24.3733C28.5914 23.7228 28.2793 23.1227 27.79 22.6875C27.3007 22.2522 26.6683 22.0123 26.0134 22.0133H23.7067C22.2001 22.0133 20.9467 23.2667 21.0401 24.7733C21.7467 36.16 30.8534 45.2533 42.2267 45.96C43.7334 46.0533 44.9867 44.8 44.9867 43.2933V40.9867C45.0001 39.64 43.9867 38.5067 42.6401 38.3467Z" fill="#13A8DA"/>
<defs>
<filter id="filter0_d_2850_1468" x="0" y="0" width="72" height="72" filterUnits="userSpaceOnUse" color-interpolation-filters="sRGB">
<feFlood flood-opacity="0" result="BackgroundImageFix"/>
<feColorMatrix in="SourceAlpha" type="matrix" values="0 0 0 0 0 0 0 0 0 0 0 0 0 0 0 0 0 0 127 0" result="hardAlpha"/>
<feOffset dx="3" dy="2"/>
<feGaussianBlur stdDeviation="3"/>
<feComposite in2="hardAlpha" operator="out"/>
<feColorMatrix type="matrix" values="0 0 0 0 0 0 0 0 0 0 0 0 0 0 0 0 0 0 0.2 0"/>
<feBlend mode="normal" in2="BackgroundImageFix" result="effect1_dropShadow_2850_1468"/>
<feBlend mode="normal" in="SourceGraphic" in2="effect1_dropShadow_2850_1468" result="shape"/>
</filter>
</defs>
</svg>
