<svg width="66" height="66" viewBox="0 0 66 66" fill="none" xmlns="http://www.w3.org/2000/svg">
<g filter="url(#filter0_d_70_254)">
<circle cx="33" cy="33" r="26" fill="white"/>
</g>
<path fill-rule="evenodd" clip-rule="evenodd" d="M34.9397 20.9552C35.269 20.4613 35.7484 20.0865 36.3072 19.8861C36.8659 19.6857 37.4743 19.6704 38.0424 19.8424C38.6106 20.0144 39.1083 20.3646 39.462 20.8413C39.8158 21.3179 40.0068 21.8958 40.0069 22.4894V36.3191H40.9289C41.6625 36.3191 42.366 36.6106 42.8847 37.1293C43.4034 37.648 43.6948 38.3515 43.6948 39.0851C43.6948 39.8187 43.4034 40.5222 42.8847 41.0409C42.366 41.5596 41.6625 41.8511 40.9289 41.8511H40.0069V44.617C40.0069 45.3506 39.7155 46.0541 39.1968 46.5728C38.678 47.0916 37.9745 47.383 37.2409 47.383C36.5074 47.383 35.8038 47.0916 35.2851 46.5728C34.7664 46.0541 34.475 45.3506 34.475 44.617V41.8511H26.1771C25.6765 41.8511 25.1853 41.7153 24.7558 41.4581C24.3264 41.2009 23.9747 40.832 23.7385 40.3906C23.5022 39.9492 23.3902 39.4519 23.4144 38.9518C23.4386 38.4517 23.5981 37.9675 23.8758 37.5509L34.9397 20.9552ZM37.5083 21.607C37.3189 21.5496 37.1161 21.5546 36.9298 21.6214C36.7435 21.6881 36.5837 21.813 36.4738 21.9776L25.41 38.5734C25.3174 38.7122 25.2642 38.8736 25.2561 39.0404C25.248 39.2071 25.2853 39.3729 25.364 39.5201C25.4428 39.6672 25.56 39.7903 25.7032 39.876C25.8464 39.9618 26.0102 40.0071 26.1771 40.0071H35.397C35.6415 40.0071 35.876 40.1042 36.0489 40.2771C36.2218 40.45 36.3189 40.6845 36.3189 40.9291V44.617C36.3189 44.8615 36.4161 45.0961 36.589 45.269C36.7619 45.4419 36.9964 45.539 37.2409 45.539C37.4855 45.539 37.72 45.4419 37.8929 45.269C38.0658 45.0961 38.1629 44.8615 38.1629 44.617V40.9291C38.1629 40.6845 38.2601 40.45 38.433 40.2771C38.6059 40.1042 38.8404 40.0071 39.0849 40.0071H40.9289C41.1734 40.0071 41.4079 39.9099 41.5808 39.737C41.7537 39.5641 41.8509 39.3296 41.8509 39.0851C41.8509 38.8406 41.7537 38.6061 41.5808 38.4332C41.4079 38.2603 41.1734 38.1631 40.9289 38.1631H39.0849C38.8404 38.1631 38.6059 38.066 38.433 37.8931C38.2601 37.7202 38.1629 37.4857 38.1629 37.2411V22.4894C38.1629 22.2915 38.0993 22.0989 37.9814 21.94C37.8635 21.7811 37.6976 21.6644 37.5083 21.607ZM35.6643 27.6976C35.8537 27.755 36.0195 27.8718 36.1374 28.0307C36.2553 28.1896 36.3189 28.3822 36.3189 28.58V37.2411C36.3189 37.4857 36.2218 37.7202 36.0489 37.8931C35.876 38.066 35.6415 38.1631 35.397 38.1631H29.6226C29.4558 38.163 29.2922 38.1177 29.1491 38.032C29.0061 37.9463 28.8889 37.8233 28.8102 37.6763C28.7315 37.5293 28.6941 37.3637 28.7021 37.1971C28.7101 37.0305 28.7631 36.8692 28.8555 36.7303L34.6299 28.0683C34.7397 27.9037 34.8996 27.7788 35.0859 27.712C35.2721 27.6453 35.475 27.6402 35.6643 27.6976ZM31.3458 36.3191H34.475V31.6262L31.3458 36.3191Z" fill="#13A8DA"/>
<defs>
<filter id="filter0_d_70_254" x="0" y="0" width="66" height="66" filterUnits="userSpaceOnUse" color-interpolation-filters="sRGB">
<feFlood flood-opacity="0" result="BackgroundImageFix"/>
<feColorMatrix in="SourceAlpha" type="matrix" values="0 0 0 0 0 0 0 0 0 0 0 0 0 0 0 0 0 0 127 0" result="hardAlpha"/>
<feMorphology radius="1" operator="dilate" in="SourceAlpha" result="effect1_dropShadow_70_254"/>
<feOffset/>
<feGaussianBlur stdDeviation="3"/>
<feComposite in2="hardAlpha" operator="out"/>
<feColorMatrix type="matrix" values="0 0 0 0 0 0 0 0 0 0 0 0 0 0 0 0 0 0 0.25 0"/>
<feBlend mode="normal" in2="BackgroundImageFix" result="effect1_dropShadow_70_254"/>
<feBlend mode="normal" in="SourceGraphic" in2="effect1_dropShadow_70_254" result="shape"/>
</filter>
</defs>
</svg>
