<svg width="160" height="160" viewBox="0 0 160 160" fill="none" xmlns="http://www.w3.org/2000/svg">
<circle cx="80" cy="80" r="80" fill="#13A8DA"/>
<g clip-path="url(#clip0_2850_1388)">
<path d="M66.8756 88.75H71.2506V77.0833H66.8756V80.7292H62.5006V85.1042H66.8756V88.75ZM74.1673 85.1042H97.5006V80.7292H74.1673V85.1042ZM88.7506 77.0833H93.1256V73.4375H97.5006V69.0625H93.1256V65.4167H88.7506V77.0833ZM62.5006 73.4375H85.834V69.0625H62.5006V73.4375ZM68.334 106.25V100.417H56.6673C55.0632 100.417 53.6904 99.846 52.549 98.7046C51.4076 97.5632 50.8359 96.1894 50.834 94.5833V59.5833C50.834 57.9792 51.4057 56.6064 52.549 55.465C53.6923 54.3236 55.0651 53.7519 56.6673 53.75H103.334C104.938 53.75 106.312 54.3217 107.455 55.465C108.599 56.6083 109.169 57.9811 109.167 59.5833V94.5833C109.167 96.1875 108.597 97.5613 107.455 98.7046C106.314 99.8479 104.94 100.419 103.334 100.417H91.6673V106.25H68.334Z" fill="white"/>
<path d="M97.9585 105.753C98.1942 106.029 98.1645 106.446 97.8923 106.677C97.6202 106.909 97.2047 106.872 96.9689 106.596C96.7331 106.319 96.7629 105.903 97.035 105.671C97.3071 105.439 97.7227 105.476 97.9585 105.753ZM98.948 104.91C98.2364 104.074 96.999 103.965 96.1777 104.665C95.3563 105.365 95.2677 106.604 95.9793 107.439C96.6909 108.274 97.9283 108.383 98.7497 107.684C99.571 106.984 99.6596 105.745 98.948 104.91ZM103.581 108.343L105.241 107.876L106.813 108.629L106.32 106.957L107.045 105.393L105.385 105.86L103.813 105.107L104.306 106.779L103.581 108.343ZM102.932 111.31L103.449 110.193L102.264 110.525L101.14 109.989L101.492 111.183L100.975 112.3L102.161 111.968L103.284 112.504L102.932 111.31ZM100.143 109.319C100.202 109.268 100.267 109.214 100.322 109.158L101.881 109.514L102.951 106.431L101.526 105.7C101.505 105.545 101.475 105.38 101.435 105.222L102.494 104.06L100.35 101.544L99.0292 102.409C98.8805 102.345 98.7262 102.294 98.5718 102.243L98.0816 100.715L94.8676 101.283L94.9718 102.879C94.9082 102.924 94.8439 102.979 94.7845 103.03C94.7251 103.08 94.6608 103.135 94.6057 103.191L93.0468 102.834L91.976 105.917L93.4013 106.648C93.4228 106.803 93.4527 106.969 93.4926 107.126L92.4338 108.289L94.5771 110.804L95.8981 109.939C96.0469 110.004 96.1962 110.059 96.3555 110.105L96.8507 111.629L100.065 111.061L99.9604 109.466C100.019 109.424 100.083 109.37 100.143 109.319ZM97.7331 110.139L97.3527 108.961C96.8158 108.932 96.2809 108.745 95.8311 108.407L94.8079 109.071L94.1821 108.336L95.0038 107.436C94.742 106.939 94.6425 106.381 94.6993 105.846L93.5965 105.283L93.9119 104.381L95.1097 104.654C95.2513 104.429 95.4284 104.226 95.6412 104.045C95.8539 103.864 96.0825 103.721 96.3269 103.617L96.2473 102.391L97.1886 102.223L97.569 103.401C98.1059 103.43 98.6408 103.617 99.0906 103.954L100.119 103.278L100.75 104.017L99.9279 104.917C100.19 105.415 100.289 105.973 100.232 106.507L101.335 107.07L101.02 107.973L99.8219 107.699C99.6804 107.924 99.5032 108.127 99.2905 108.308C99.0777 108.49 98.8491 108.632 98.6047 108.736L98.6843 109.962L97.7331 110.139Z" fill="white"/>
</g>
<defs>
<clipPath id="clip0_2850_1388">
<rect width="70" height="70" fill="white" transform="translate(45 45)"/>
</clipPath>
</defs>
</svg>
