<svg width="66" height="66" viewBox="0 0 66 66" fill="none" xmlns="http://www.w3.org/2000/svg">
<g filter="url(#filter0_d_70_197)">
<circle cx="33" cy="33" r="26" fill="white"/>
</g>
<path fill-rule="evenodd" clip-rule="evenodd" d="M43.6958 28.0213C43.6958 25.8205 42.8215 23.7099 41.2654 22.1538C39.7092 20.5976 37.5986 19.7234 35.3979 19.7234H31.71C29.9937 19.7231 28.3196 20.2549 26.9182 21.2456C25.5169 22.2363 24.4571 23.6372 23.8851 25.2553C23.6405 25.9469 23.6808 26.7074 23.9969 27.3694C24.3131 28.0313 24.8793 28.5406 25.5709 28.7851C26.2626 29.0297 27.023 28.9894 27.685 28.6733C28.3469 28.3571 28.8562 27.7909 29.1007 27.0993C29.2915 26.5598 29.6449 26.0927 30.1122 25.7624C30.5795 25.4322 31.1377 25.255 31.71 25.2553H35.3979C35.9583 25.2551 36.5055 25.4251 36.9671 25.7428C37.4287 26.0605 37.7829 26.511 37.9828 27.0345C38.1827 27.558 38.2189 28.1298 38.0866 28.6743C37.9543 29.2189 37.6597 29.7104 37.2419 30.0837L37.1635 30.1557L24.2557 42.6283C23.8595 43.0113 23.5867 43.5039 23.4723 44.0429C23.358 44.582 23.4072 45.1429 23.6138 45.6538C23.8203 46.1646 24.1748 46.6022 24.6316 46.9103C25.0885 47.2184 25.627 47.383 26.178 47.383H40.9298C41.6634 47.383 42.3669 47.0915 42.8856 46.5728C43.4044 46.0541 43.6958 45.3506 43.6958 44.617C43.6958 43.8834 43.4044 43.1799 42.8856 42.6612C42.3669 42.1425 41.6634 41.851 40.9298 41.851H33.021L40.9741 34.1663C41.8312 33.3885 42.5162 32.44 42.9849 31.3817C43.4536 30.3234 43.6958 29.1787 43.6958 28.0213ZM35.3979 21.5674C36.7049 21.567 37.9813 21.9636 39.058 22.7045C40.1347 23.4454 40.9611 24.4958 41.4279 25.7167C41.8946 26.9375 41.9796 28.2713 41.6717 29.5416C41.3638 30.8118 40.6775 31.9587 39.7036 32.8303L30.0983 42.1101C29.9662 42.2378 29.8753 42.4021 29.8372 42.5819C29.7991 42.7617 29.8156 42.9487 29.8845 43.119C29.9535 43.2894 30.0718 43.4352 30.2242 43.5378C30.3766 43.6405 30.5563 43.6952 30.74 43.695H40.9298C41.1743 43.695 41.4089 43.7922 41.5818 43.9651C41.7547 44.138 41.8518 44.3725 41.8518 44.617C41.8518 44.8615 41.7547 45.096 41.5818 45.2689C41.4089 45.4419 41.1743 45.539 40.9298 45.539H26.178C25.9942 45.5392 25.8144 45.4844 25.6619 45.3816C25.5094 45.2789 25.3911 45.1329 25.3223 44.9624C25.2534 44.7919 25.237 44.6047 25.2753 44.4249C25.3137 44.2451 25.4049 44.0808 25.5373 43.9532L38.4451 31.4815L38.4709 31.4575C39.1668 30.8351 39.6574 30.0161 39.8776 29.1088C40.0979 28.2015 40.0375 27.2487 39.7044 26.3765C39.3712 25.5043 38.7812 24.7538 38.0122 24.2243C37.2432 23.6949 36.3315 23.4113 35.3979 23.4113H31.71C30.7564 23.4109 29.8261 23.7063 29.0474 24.2566C28.2687 24.807 27.6798 25.5853 27.3619 26.4843C27.3241 26.6017 27.2632 26.7103 27.1828 26.8037C27.1023 26.8971 27.0039 26.9734 26.8935 27.0281C26.783 27.0828 26.6627 27.1149 26.5396 27.1223C26.4166 27.1297 26.2933 27.1123 26.177 27.0713C26.0608 27.0302 25.954 26.9662 25.8629 26.8832C25.7718 26.8001 25.6983 26.6996 25.6467 26.5876C25.5952 26.4757 25.5666 26.3545 25.5627 26.2313C25.5587 26.108 25.5796 25.9853 25.6239 25.8703C26.0688 24.6117 26.893 23.5221 27.983 22.7514C29.073 21.9808 30.3751 21.5671 31.71 21.5674H35.3979Z" fill="#13A8DA"/>
<defs>
<filter id="filter0_d_70_197" x="0" y="0" width="66" height="66" filterUnits="userSpaceOnUse" color-interpolation-filters="sRGB">
<feFlood flood-opacity="0" result="BackgroundImageFix"/>
<feColorMatrix in="SourceAlpha" type="matrix" values="0 0 0 0 0 0 0 0 0 0 0 0 0 0 0 0 0 0 127 0" result="hardAlpha"/>
<feMorphology radius="1" operator="dilate" in="SourceAlpha" result="effect1_dropShadow_70_197"/>
<feOffset/>
<feGaussianBlur stdDeviation="3"/>
<feComposite in2="hardAlpha" operator="out"/>
<feColorMatrix type="matrix" values="0 0 0 0 0 0 0 0 0 0 0 0 0 0 0 0 0 0 0.25 0"/>
<feBlend mode="normal" in2="BackgroundImageFix" result="effect1_dropShadow_70_197"/>
<feBlend mode="normal" in="SourceGraphic" in2="effect1_dropShadow_70_197" result="shape"/>
</filter>
</defs>
</svg>
