<svg width="66" height="66" viewBox="0 0 66 66" fill="none" xmlns="http://www.w3.org/2000/svg">
<g filter="url(#filter0_d_70_229)">
<circle cx="33" cy="33" r="26" fill="white"/>
</g>
<path fill-rule="evenodd" clip-rule="evenodd" d="M43.6951 28.0213C43.6951 23.3809 39.8689 19.7234 35.2774 19.7234H31.5083C27.8757 19.7234 24.7456 21.9988 23.5756 25.2378C23.3264 25.9278 23.3615 26.6886 23.6733 27.3527C23.985 28.0169 24.5478 28.53 25.2379 28.7791C25.928 29.0283 26.6887 28.9931 27.3529 28.6814C28.017 28.3697 28.5301 27.8068 28.7793 27.1168C29.161 26.0593 30.2175 25.2553 31.5083 25.2553H35.2765C36.925 25.2553 38.1632 26.5461 38.1632 28.0213C38.1632 29.4964 36.925 30.7872 35.2774 30.7872H31.5083C30.7747 30.7872 30.0712 31.0786 29.5525 31.5973C29.0338 32.1161 28.7424 32.8196 28.7424 33.5532C28.7424 34.2868 29.0338 34.9903 29.5525 35.509C30.0712 36.0277 30.7747 36.3191 31.5083 36.3191H35.2765C36.925 36.3191 38.1632 37.6099 38.1632 39.0851C38.1632 40.5603 36.925 41.851 35.2774 41.851H31.5083C30.2175 41.851 29.161 41.048 28.7793 39.9896C28.6559 39.6479 28.4664 39.3338 28.2217 39.0654C27.9769 38.7969 27.6817 38.5793 27.3529 38.425C27.024 38.2706 26.668 38.1825 26.3051 38.1657C25.9422 38.149 25.5796 38.2038 25.2379 38.3272C24.8962 38.4506 24.5822 38.6401 24.3137 38.8848C24.0453 39.1295 23.8277 39.4248 23.6733 39.7536C23.5189 40.0825 23.4309 40.4385 23.4141 40.8014C23.3973 41.1643 23.4522 41.5269 23.5756 41.8686C24.7465 45.1075 27.8757 47.383 31.5083 47.383H35.2765C39.8689 47.383 43.6951 43.7254 43.6951 39.0851C43.6976 37.0381 42.9331 35.0644 41.5524 33.5532C42.9331 32.0419 43.6976 30.0683 43.6951 28.0213ZM35.2774 21.5674C38.8897 21.5674 41.8512 24.4393 41.8512 28.0213C41.8514 28.9395 41.6531 29.847 41.2699 30.6815C40.8867 31.5161 40.3277 32.2579 39.631 32.8562C39.5311 32.9427 39.4509 33.0497 39.3959 33.17C39.341 33.2903 39.3125 33.421 39.3125 33.5532C39.3125 33.6854 39.341 33.8161 39.3959 33.9363C39.4509 34.0566 39.5311 34.1636 39.631 34.2502C40.3277 34.8485 40.8867 35.5903 41.2699 36.4248C41.6531 37.2593 41.8514 38.1668 41.8512 39.0851C41.8512 42.667 38.8897 45.539 35.2774 45.539H31.5083C28.6566 45.539 26.218 43.754 25.3107 41.2425C25.2655 41.1278 25.2438 41.0053 25.2468 40.882C25.2498 40.7588 25.2775 40.6374 25.3283 40.5251C25.379 40.4127 25.4518 40.3117 25.5422 40.2279C25.6327 40.1442 25.739 40.0795 25.8549 40.0375C25.9709 39.9956 26.094 39.9773 26.2171 39.9838C26.3402 39.9903 26.4608 40.0214 26.5716 40.0753C26.6825 40.1292 26.7814 40.2048 26.8626 40.2976C26.9437 40.3904 27.0054 40.4985 27.0441 40.6156C27.6895 42.4015 29.4375 43.695 31.5083 43.695H35.2765C37.9106 43.695 40.0072 41.6095 40.0072 39.0851C40.0072 36.5607 37.9106 34.4752 35.2774 34.4752H31.5083C31.2638 34.4752 31.0293 34.378 30.8564 34.2051C30.6835 34.0322 30.5863 33.7977 30.5863 33.5532C30.5863 33.3087 30.6835 33.0741 30.8564 32.9012C31.0293 32.7283 31.2638 32.6312 31.5083 32.6312H35.2765C37.9106 32.6312 40.0072 30.5457 40.0072 28.0213C40.0072 25.4969 37.9106 23.4113 35.2774 23.4113H31.5083C29.4375 23.4113 27.6895 24.7049 27.045 26.4908C26.9619 26.7207 26.7908 26.9083 26.5694 27.0121C26.348 27.1159 26.0944 27.1276 25.8644 27.0444C25.6344 26.9613 25.4469 26.7902 25.3431 26.5688C25.2392 26.3474 25.2276 26.0938 25.3107 25.8638C26.218 23.3523 28.6575 21.5674 31.5083 21.5674H35.2774Z" fill="#13A8DA"/>
<defs>
<filter id="filter0_d_70_229" x="0" y="0" width="66" height="66" filterUnits="userSpaceOnUse" color-interpolation-filters="sRGB">
<feFlood flood-opacity="0" result="BackgroundImageFix"/>
<feColorMatrix in="SourceAlpha" type="matrix" values="0 0 0 0 0 0 0 0 0 0 0 0 0 0 0 0 0 0 127 0" result="hardAlpha"/>
<feMorphology radius="1" operator="dilate" in="SourceAlpha" result="effect1_dropShadow_70_229"/>
<feOffset/>
<feGaussianBlur stdDeviation="3"/>
<feComposite in2="hardAlpha" operator="out"/>
<feColorMatrix type="matrix" values="0 0 0 0 0 0 0 0 0 0 0 0 0 0 0 0 0 0 0.25 0"/>
<feBlend mode="normal" in2="BackgroundImageFix" result="effect1_dropShadow_70_229"/>
<feBlend mode="normal" in="SourceGraphic" in2="effect1_dropShadow_70_229" result="shape"/>
</filter>
</defs>
</svg>
