<svg width="54" height="54" viewBox="0 0 54 54" fill="none" xmlns="http://www.w3.org/2000/svg">
<g filter="url(#filter0_d_2850_1509)">
<circle cx="27" cy="27" r="20" fill="#13A8DA"/>
</g>
<path d="M20.6758 18.25C20.6755 18.9131 20.4117 19.5488 19.9427 20.0174C19.4736 20.486 18.8376 20.7491 18.1745 20.7488C17.5115 20.7484 16.8757 20.4847 16.4071 20.0157C15.9385 19.5466 15.6755 18.9106 15.6758 18.2475C15.6761 17.5845 15.9398 16.9487 16.4089 16.4801C16.878 16.0115 17.514 15.7484 18.177 15.7488C18.8401 15.7491 19.4758 16.0128 19.9444 16.4819C20.413 16.951 20.6761 17.587 20.6758 18.25ZM20.7508 22.6H15.7508V38.25H20.7508V22.6ZM28.6508 22.6H23.6758V38.25H28.6008V30.0375C28.6008 25.4625 34.5633 25.0375 34.5633 30.0375V38.25H39.5008V28.3375C39.5008 20.625 30.6758 20.9125 28.6008 24.7L28.6508 22.6Z" fill="white"/>
<defs>
<filter id="filter0_d_2850_1509" x="0" y="0" width="54" height="54" filterUnits="userSpaceOnUse" color-interpolation-filters="sRGB">
<feFlood flood-opacity="0" result="BackgroundImageFix"/>
<feColorMatrix in="SourceAlpha" type="matrix" values="0 0 0 0 0 0 0 0 0 0 0 0 0 0 0 0 0 0 127 0" result="hardAlpha"/>
<feMorphology radius="1" operator="dilate" in="SourceAlpha" result="effect1_dropShadow_2850_1509"/>
<feOffset/>
<feGaussianBlur stdDeviation="3"/>
<feComposite in2="hardAlpha" operator="out"/>
<feColorMatrix type="matrix" values="0 0 0 0 0 0 0 0 0 0 0 0 0 0 0 0 0 0 0.15 0"/>
<feBlend mode="normal" in2="BackgroundImageFix" result="effect1_dropShadow_2850_1509"/>
<feBlend mode="normal" in="SourceGraphic" in2="effect1_dropShadow_2850_1509" result="shape"/>
</filter>
</defs>
</svg>
