<svg width="72" height="72" viewBox="0 0 72 72" fill="none" xmlns="http://www.w3.org/2000/svg">
<g filter="url(#filter0_d_2850_1462)">
<circle cx="33" cy="34" r="30" fill="white"/>
<path d="M43.666 23.3333H22.3327C20.866 23.3333 19.666 24.5333 19.666 26V42C19.666 43.4667 20.866 44.6667 22.3327 44.6667H43.666C45.1327 44.6667 46.3327 43.4667 46.3327 42V26C46.3327 24.5333 45.1327 23.3333 43.666 23.3333ZM43.1327 29L34.4127 34.4533C33.546 35 32.4527 35 31.586 34.4533L22.866 29C22.7323 28.925 22.6152 28.8236 22.5219 28.7019C22.4285 28.5803 22.3608 28.441 22.3228 28.2925C22.2848 28.144 22.2774 27.9893 22.3009 27.8378C22.3244 27.6862 22.3785 27.5411 22.4597 27.4111C22.541 27.2811 22.6478 27.1689 22.7737 27.0813C22.8995 26.9938 23.0418 26.9327 23.192 26.9017C23.3422 26.8708 23.4971 26.8706 23.6473 26.9013C23.7975 26.9319 23.94 26.9927 24.066 27.08L32.9994 32.6667L41.9327 27.08C42.0587 26.9927 42.2012 26.9319 42.3514 26.9013C42.5016 26.8706 42.6565 26.8708 42.8067 26.9017C42.9569 26.9327 43.0992 26.9938 43.225 27.0813C43.3509 27.1689 43.4577 27.2811 43.539 27.4111C43.6202 27.5411 43.6743 27.6862 43.6978 27.8378C43.7213 27.9893 43.7139 28.144 43.6759 28.2925C43.6379 28.441 43.5702 28.5803 43.4768 28.7019C43.3835 28.8236 43.2664 28.925 43.1327 29Z" fill="#13A8DA"/>
</g>
<defs>
<filter id="filter0_d_2850_1462" x="0" y="0" width="72" height="72" filterUnits="userSpaceOnUse" color-interpolation-filters="sRGB">
<feFlood flood-opacity="0" result="BackgroundImageFix"/>
<feColorMatrix in="SourceAlpha" type="matrix" values="0 0 0 0 0 0 0 0 0 0 0 0 0 0 0 0 0 0 127 0" result="hardAlpha"/>
<feOffset dx="3" dy="2"/>
<feGaussianBlur stdDeviation="3"/>
<feComposite in2="hardAlpha" operator="out"/>
<feColorMatrix type="matrix" values="0 0 0 0 0 0 0 0 0 0 0 0 0 0 0 0 0 0 0.2 0"/>
<feBlend mode="normal" in2="BackgroundImageFix" result="effect1_dropShadow_2850_1462"/>
<feBlend mode="normal" in="SourceGraphic" in2="effect1_dropShadow_2850_1462" result="shape"/>
</filter>
</defs>
</svg>
