<svg width="160" height="160" viewBox="0 0 160 160" fill="none" xmlns="http://www.w3.org/2000/svg">
<circle cx="80" cy="80" r="80" fill="#13A8DA"/>
<path d="M76 48C71.7565 48 67.6869 49.6857 64.6863 52.6863C61.6857 55.6869 60 59.7565 60 64C60 68.2435 61.6857 72.3131 64.6863 75.3137C67.6869 78.3143 71.7565 80 76 80C80.2435 80 84.3131 78.3143 87.3137 75.3137C90.3143 72.3131 92 68.2435 92 64C92 59.7565 90.3143 55.6869 87.3137 52.6863C84.3131 49.6857 80.2435 48 76 48ZM56.036 84C54.9824 83.9953 53.9382 84.1987 52.9635 84.5986C51.9887 84.9985 51.1025 85.587 50.3559 86.3304C49.6092 87.0737 49.0167 87.9572 48.6124 88.9302C48.2081 89.9032 48 90.9464 48 92C48 98.764 51.332 103.864 56.54 107.188C61.668 110.456 68.58 112 76 112C77.6453 112 79.2587 111.924 80.84 111.772C77.7006 107.869 75.9925 103.009 76 98C76 92.68 77.888 87.8 81.028 84H56.036ZM82.54 95.68C83.5729 95.4158 84.5426 94.9478 85.3921 94.3035C86.2416 93.6592 86.9537 92.8516 87.4866 91.9281C88.0195 91.0047 88.3624 89.984 88.4952 88.9261C88.628 87.8683 88.5481 86.7945 88.26 85.768L87.64 83.54C88.6587 82.7587 89.7533 82.096 90.924 81.552L92.276 82.984C93.0236 83.7772 93.9254 84.4093 94.926 84.8415C95.9267 85.2737 97.0051 85.4968 98.0951 85.4971C99.1851 85.4975 100.264 85.2751 101.265 84.8437C102.266 84.4122 103.168 83.7807 103.916 82.988L105.212 81.612C106.407 82.1773 107.52 82.868 108.552 83.684L108.048 85.376C107.736 86.4201 107.641 87.517 107.768 88.5993C107.895 89.6817 108.241 90.7266 108.787 91.6701C109.332 92.6136 110.064 93.4357 110.939 94.0861C111.813 94.7364 112.811 95.2012 113.872 95.452L115.268 95.78C115.428 97.1306 115.442 98.4945 115.308 99.848L113.468 100.316C112.434 100.58 111.464 101.048 110.614 101.692C109.763 102.336 109.051 103.144 108.517 104.068C107.984 104.992 107.641 106.013 107.508 107.072C107.375 108.131 107.455 109.205 107.744 110.232L108.368 112.456C107.347 113.24 106.251 113.904 105.08 114.448L103.728 113.016C102.981 112.223 102.079 111.591 101.079 111.159C100.079 110.727 99.0012 110.504 97.9117 110.503C96.8222 110.502 95.744 110.724 94.7433 111.155C93.7426 111.586 92.8404 112.216 92.092 113.008L90.792 114.384C89.6031 113.823 88.4825 113.128 87.452 112.312L87.96 110.624C88.2727 109.58 88.3686 108.482 88.2419 107.4C88.1151 106.317 87.7684 105.271 87.223 104.327C86.6776 103.383 85.945 102.561 85.0703 101.91C84.1955 101.26 83.197 100.795 82.136 100.544L80.736 100.216C80.5758 98.8668 80.5624 97.5041 80.696 96.152L82.54 95.68ZM102 98C102 96.9391 101.579 95.9217 100.828 95.1716C100.078 94.4214 99.0609 94 98 94C96.9391 94 95.9217 94.4214 95.1716 95.1716C94.4214 95.9217 94 96.9391 94 98C94 99.0609 94.4214 100.078 95.1716 100.828C95.9217 101.579 96.9391 102 98 102C99.0609 102 100.078 101.579 100.828 100.828C101.579 100.078 102 99.0609 102 98Z" fill="white"/>
</svg>
