<svg width="160" height="160" viewBox="0 0 160 160" fill="none" xmlns="http://www.w3.org/2000/svg">
<circle cx="80" cy="80" r="80" fill="#13A8DA"/>
<path fill-rule="evenodd" clip-rule="evenodd" d="M96.6295 46.4C96.8907 45.9805 97.2705 45.6477 97.7209 45.444C98.1712 45.2402 98.6718 45.1744 99.1595 45.255L112.014 47.4C112.668 47.5091 113.252 47.8731 113.637 48.4122C114.022 48.9513 114.178 49.6213 114.069 50.275L111.929 63.135C111.848 63.6225 111.623 64.0749 111.285 64.4349C110.946 64.7949 110.508 65.0465 110.027 65.1578C109.545 65.2691 109.041 65.2351 108.579 65.0602C108.117 64.8853 107.717 64.5773 107.429 64.175L103.959 59.325L86.0895 70.745C85.3274 71.2327 84.4147 71.4284 83.5198 71.2961C82.6248 71.1637 81.8078 70.7123 81.2194 70.025L71.2544 58.375L52.6194 67.95C51.7349 68.4049 50.706 68.4897 49.7589 68.1859C48.8119 67.8821 48.0243 67.2145 47.5694 66.33C47.1146 65.4455 47.0297 64.4166 47.3335 63.4695C47.6373 62.5225 48.3049 61.7349 49.1894 61.28L70.4644 50.345C71.2156 49.9592 72.0749 49.8381 72.9034 50.0014C73.7319 50.1648 74.481 50.603 75.0294 51.245L84.7994 62.67L99.5995 53.21L96.7145 49.175C96.4276 48.7727 96.2665 48.2943 96.2513 47.8004C96.2362 47.3065 96.3678 46.8192 96.6295 46.4ZM63.8994 70.95L49.3894 79.25C48.8162 79.5775 48.3396 80.0504 48.0077 80.6211C47.6759 81.1917 47.5005 81.8399 47.4994 82.5V111.25C47.4994 113.32 49.1794 115 51.2494 115H63.8994V70.95ZM70.1494 115H88.4894V80.94L80.2444 85.06L72.0044 70.64C71.5874 69.9074 70.9357 69.3367 70.1544 69.02L70.1494 115ZM108.749 115H94.7395V77.815L107.074 71.645C107.646 71.3596 108.281 71.225 108.92 71.254C109.558 71.283 110.178 71.4747 110.722 71.8108C111.265 72.1469 111.714 72.6163 112.025 73.1745C112.336 73.7326 112.499 74.361 112.499 75V111.25C112.499 112.245 112.104 113.198 111.401 113.902C110.698 114.605 109.744 115 108.749 115Z" fill="white"/>
</svg>
