<svg width="66" height="66" viewBox="0 0 66 66" fill="none" xmlns="http://www.w3.org/2000/svg">
<g filter="url(#filter0_d_70_171)">
<circle cx="33" cy="33" r="26" fill="white"/>
</g>
<path fill-rule="evenodd" clip-rule="evenodd" d="M34.3637 19.4275C34.7505 19.0407 35.2433 18.7774 35.7798 18.6707C36.3162 18.5641 36.8723 18.6188 37.3776 18.8281C37.883 19.0374 38.3149 19.3919 38.6188 19.8466C38.9228 20.3014 39.0851 20.836 39.0852 21.383V43.5106C39.0852 44.2442 38.7938 44.9478 38.275 45.4665C37.7563 45.9852 37.0528 46.2766 36.3192 46.2766C35.5856 46.2766 34.8821 45.9852 34.3634 45.4665C33.8447 44.9478 33.5533 44.2442 33.5533 43.5106V28.0545C33.0161 28.5322 32.314 28.782 31.5958 28.751C30.8776 28.7199 30.1997 28.4105 29.7057 27.8882C29.2117 27.366 28.9405 26.6719 28.9494 25.9531C28.9584 25.2342 29.2469 24.5472 29.7538 24.0374L34.3637 19.4275ZM36.6723 20.5311C36.5038 20.4613 36.3184 20.443 36.1395 20.4786C35.9606 20.5142 35.7963 20.6021 35.6674 20.7311L31.0574 25.3411C30.8895 25.515 30.7966 25.7479 30.7987 25.9896C30.8008 26.2313 30.8977 26.4626 31.0687 26.6335C31.2396 26.8045 31.4709 26.9014 31.7126 26.9035C31.9543 26.9056 32.1872 26.8127 32.3611 26.6448L33.8234 25.1825C33.9523 25.0536 34.1166 24.9658 34.2954 24.9302C34.4742 24.8947 34.6596 24.9129 34.828 24.9827C34.9965 25.0525 35.1405 25.1706 35.2418 25.3222C35.3431 25.4738 35.3972 25.652 35.3972 25.8343V43.5106C35.3972 43.7552 35.4944 43.9897 35.6673 44.1626C35.8402 44.3355 36.0747 44.4326 36.3192 44.4326C36.5637 44.4326 36.7982 44.3355 36.9712 44.1626C37.1441 43.9897 37.2412 43.7552 37.2412 43.5106V21.383C37.2412 21.2006 37.1872 21.0224 37.086 20.8708C36.9847 20.7191 36.8408 20.6009 36.6723 20.5311Z" fill="#13A8DA"/>
<defs>
<filter id="filter0_d_70_171" x="0" y="0" width="66" height="66" filterUnits="userSpaceOnUse" color-interpolation-filters="sRGB">
<feFlood flood-opacity="0" result="BackgroundImageFix"/>
<feColorMatrix in="SourceAlpha" type="matrix" values="0 0 0 0 0 0 0 0 0 0 0 0 0 0 0 0 0 0 127 0" result="hardAlpha"/>
<feMorphology radius="1" operator="dilate" in="SourceAlpha" result="effect1_dropShadow_70_171"/>
<feOffset/>
<feGaussianBlur stdDeviation="3"/>
<feComposite in2="hardAlpha" operator="out"/>
<feColorMatrix type="matrix" values="0 0 0 0 0 0 0 0 0 0 0 0 0 0 0 0 0 0 0.25 0"/>
<feBlend mode="normal" in2="BackgroundImageFix" result="effect1_dropShadow_70_171"/>
<feBlend mode="normal" in="SourceGraphic" in2="effect1_dropShadow_70_171" result="shape"/>
</filter>
</defs>
</svg>
