<svg width="66" height="66" viewBox="0 0 66 66" fill="none" xmlns="http://www.w3.org/2000/svg">
<g filter="url(#filter0_d_70_171)">
<circle cx="33" cy="33" r="26" fill="white"/>
</g>
<path fill-rule="evenodd" clip-rule="evenodd" d="M32.0128 18.8198C32.5852 18.4283 33.3145 18.1618 34.1084 18.0538C34.9023 17.9458 35.7252 18.0012 36.473 18.2131C37.2209 18.425 37.8601 18.7838 38.3099 19.2441C38.7597 19.7045 38.9998 20.2458 39 20.7995V43.1999C39 43.9426 38.5687 44.6548 37.8011 45.1799C37.0335 45.705 35.9923 46 34.9067 46C33.8211 46 32.78 45.705 32.0123 45.1799C31.2447 44.6548 30.8134 43.9426 30.8134 43.1999V27.5532C30.0185 28.0368 28.9795 28.2897 27.9166 28.2583C26.8537 28.2269 25.8505 27.9136 25.1195 27.3849C24.3884 26.8562 23.987 26.1536 24.0003 25.4259C24.0136 24.6982 24.4405 24.0027 25.1906 23.4866L32.0128 18.8198ZM35.4293 19.937C35.1799 19.8664 34.9055 19.8479 34.6408 19.884C34.376 19.92 34.1329 20.009 33.9421 20.1396L27.1199 24.8063C26.8714 24.9824 26.7338 25.2181 26.737 25.4629C26.7401 25.7076 26.8836 25.9417 27.1365 26.1147C27.3895 26.2878 27.7317 26.386 28.0895 26.3881C28.4472 26.3902 28.7919 26.2961 29.0492 26.1261L31.2132 24.6458C31.404 24.5153 31.6471 24.4265 31.9117 24.3905C32.1764 24.3545 32.4507 24.3729 32.7 24.4436C32.9492 24.5142 33.1623 24.6338 33.3122 24.7873C33.4622 24.9407 33.5422 25.1211 33.5423 25.3057V43.1999C33.5423 43.4475 33.686 43.6849 33.9419 43.8599C34.1978 44.035 34.5448 44.1333 34.9067 44.1333C35.2686 44.1333 35.6156 44.035 35.8715 43.8599C36.1274 43.6849 36.2711 43.4475 36.2711 43.1999V20.7995C36.2712 20.6149 36.1913 20.4344 36.0414 20.2809C35.8916 20.1274 35.6785 20.0077 35.4293 19.937Z" fill="#13A8DA"/>
<defs>
<filter id="filter0_d_70_171" x="0" y="0" width="66" height="66" filterUnits="userSpaceOnUse" color-interpolation-filters="sRGB">
<feFlood flood-opacity="0" result="BackgroundImageFix"/>
<feColorMatrix in="SourceAlpha" type="matrix" values="0 0 0 0 0 0 0 0 0 0 0 0 0 0 0 0 0 0 127 0" result="hardAlpha"/>
<feMorphology radius="1" operator="dilate" in="SourceAlpha" result="effect1_dropShadow_70_171"/>
<feOffset/>
<feGaussianBlur stdDeviation="3"/>
<feComposite in2="hardAlpha" operator="out"/>
<feColorMatrix type="matrix" values="0 0 0 0 0 0 0 0 0 0 0 0 0 0 0 0 0 0 0.25 0"/>
<feBlend mode="normal" in2="BackgroundImageFix" result="effect1_dropShadow_70_171"/>
<feBlend mode="normal" in="SourceGraphic" in2="effect1_dropShadow_70_171" result="shape"/>
</filter>
</defs>
</svg>
