<svg width="16" height="8" viewBox="0 0 16 8" fill="none" xmlns="http://www.w3.org/2000/svg">
<path d="M1.242 7.78973L7.48837 1.6421C7.62465 1.50727 7.80863 1.43164 8.00034 1.43164C8.19206 1.43164 8.37603 1.50727 8.51232 1.6421L14.7587 7.7884C14.8958 7.92316 15.0804 7.99867 15.2727 7.99867C15.4649 7.99867 15.6495 7.92316 15.7866 7.7884C15.8542 7.72256 15.9078 7.64388 15.9445 7.55698C15.9811 7.47009 16 7.37673 16 7.28243C16 7.18812 15.9811 7.09477 15.9445 7.00787C15.9078 6.92097 15.8542 6.84229 15.7866 6.77646L9.5416 0.630156C9.13026 0.226279 8.57682 0 8.00034 0C7.42387 0 6.87042 0.226279 6.45908 0.630156L0.214045 6.77646C0.146312 6.84231 0.0924715 6.92107 0.0557069 7.0081C0.0189423 7.09512 0 7.18863 0 7.28309C0 7.37756 0.0189423 7.47107 0.0557069 7.55809C0.0924715 7.64511 0.146312 7.72388 0.214045 7.78973C0.351179 7.92449 0.535754 8 0.72802 8C0.920286 8 1.10486 7.92449 1.242 7.78973Z" fill="black"/>
</svg>
