<svg width="16" height="8" viewBox="0 0 16 8" fill="none" xmlns="http://www.w3.org/2000/svg">
<path d="M1.242 0.21027L7.48837 6.3579C7.62465 6.49273 7.80863 6.56836 8.00034 6.56836C8.19206 6.56836 8.37603 6.49273 8.51232 6.3579L14.7587 0.211604C14.8958 0.0768442 15.0804 0.00133371 15.2727 0.00133371C15.4649 0.00133371 15.6495 0.0768442 15.7866 0.211604C15.8542 0.277436 15.9078 0.356119 15.9445 0.443017C15.9811 0.529913 16 0.623267 16 0.717574C16 0.811882 15.9811 0.905234 15.9445 0.992131C15.9078 1.07903 15.8542 1.15771 15.7866 1.22354L9.5416 7.36984C9.13026 7.77372 8.57682 8 8.00034 8C7.42387 8 6.87042 7.77372 6.45908 7.36984L0.214045 1.22354C0.146312 1.15769 0.0924715 1.07893 0.0557069 0.991905C0.0189423 0.904884 0 0.811375 0 0.716907C0 0.622439 0.0189423 0.528931 0.0557069 0.44191C0.0924715 0.354889 0.146312 0.276123 0.214045 0.21027C0.351179 0.0755105 0.535754 0 0.72802 0C0.920286 0 1.10486 0.0755105 1.242 0.21027Z" fill="black"/>
</svg>
